<?xml version="1.0" encoding="UTF-8" standalone="no"?>
<!-- Creator: CorelDRAW X6 -->

<svg
   xml:space="preserve"
   width="7.1150002in"
   height="3.6980002in"
   version="1.1"
   style="clip-rule:evenodd;fill-rule:evenodd;image-rendering:optimizeQuality;shape-rendering:geometricPrecision;text-rendering:geometricPrecision"
   viewBox="0 0 7115.0002 3698.0002"
   id="svg2"
   inkscape:version="1.1.2 (0a00cf5339, 2022-02-04, custom)"
   sodipodi:docname="logo_majestic.svg"
   xmlns:inkscape="http://www.inkscape.org/namespaces/inkscape"
   xmlns:sodipodi="http://sodipodi.sourceforge.net/DTD/sodipodi-0.dtd"
   xmlns="http://www.w3.org/2000/svg"
   xmlns:svg="http://www.w3.org/2000/svg"
   xmlns:rdf="http://www.w3.org/1999/02/22-rdf-syntax-ns#"
   xmlns:cc="http://creativecommons.org/ns#"
   xmlns:dc="http://purl.org/dc/elements/1.1/"><metadata
     id="metadata41"><rdf:RDF><cc:Work
         rdf:about=""><dc:format>image/svg+xml</dc:format><dc:type
           rdf:resource="http://purl.org/dc/dcmitype/StillImage" /></cc:Work></rdf:RDF></metadata><sodipodi:namedview
     pagecolor="#ffffff"
     bordercolor="#666666"
     borderopacity="1"
     objecttolerance="10"
     gridtolerance="10"
     guidetolerance="10"
     inkscape:pageopacity="0"
     inkscape:pageshadow="2"
     inkscape:window-width="1920"
     inkscape:window-height="1009"
     id="namedview39"
     showgrid="false"
     fit-margin-top="0"
     fit-margin-left="0"
     fit-margin-right="0"
     fit-margin-bottom="0"
     inkscape:zoom="0.23838384"
     inkscape:cx="207.6483"
     inkscape:cy="67.118644"
     inkscape:window-x="-8"
     inkscape:window-y="-8"
     inkscape:window-maximized="1"
     inkscape:current-layer="svg2"
     inkscape:pagecheckerboard="0"
     inkscape:document-units="in" /><defs
     id="defs4"><style
       type="text/css"
       id="style6"><![CDATA[
    .str0 {stroke:#2D2925;stroke-width:111.11}
    .fil2 {fill:#161616}
    .fil1 {fill:white}
    .fil0 {fill:#2D2925}
   ]]></style></defs><path
     id="path829"
     style="color:#000000;font-style:normal;font-variant:normal;font-weight:normal;font-stretch:normal;font-size:medium;line-height:normal;font-family:sans-serif;text-indent:0;text-align:start;text-decoration:none;text-decoration-line:none;text-decoration-style:solid;text-decoration-color:#000000;letter-spacing:normal;word-spacing:normal;text-transform:none;writing-mode:lr-tb;direction:ltr;baseline-shift:baseline;text-anchor:start;white-space:normal;clip-rule:nonzero;display:inline;overflow:visible;visibility:visible;opacity:1;isolation:auto;mix-blend-mode:normal;color-interpolation:sRGB;color-interpolation-filters:linearRGB;solid-color:#000000;solid-opacity:1;fill:#2d2925;fill-opacity:1;fill-rule:nonzero;stroke:none;stroke-width:10.6666;stroke-linecap:butt;stroke-linejoin:miter;stroke-miterlimit:4;stroke-dasharray:none;stroke-dashoffset:0;stroke-opacity:1;color-rendering:auto;image-rendering:auto;shape-rendering:auto;text-rendering:auto;enable-background:accumulate"
     d="M 258.33594 0 L 254.49609 5.1835938 L 4.03125 347.9043 L 1.1523438 351.93555 L 0 353.2793 L 6.8164062 354.91211 L 133.24805 354.91211 L 142.36719 350.5918 L 323.13672 103.19922 L 323.42383 103.00781 L 323.71289 102.81641 L 324 102.62305 L 323.80859 98.496094 L 261.02344 1.1523438 L 260.73633 0.9609375 L 258.33594 0 z M 456.04102 1.9628906 L 434.94336 31.480469 L 423.54883 17.367188 L 413.77734 24.507812 L 177.88086 349.01367 L 291.92773 349.01367 L 293.04102 348.4668 L 299.88281 345.10352 L 493.23633 80.675781 L 498.38086 72.623047 L 500.05859 59.859375 L 497.99609 56.972656 L 468.48438 8.0410156 L 465.625 1.9628906 L 456.04102 1.9628906 z M 460.04688 14.703125 L 489.07617 62.835938 L 488.93359 62.636719 L 488.11523 68.880859 L 484.42773 74.652344 L 292.82227 336.68945 L 289.44922 338.34766 L 198.82227 338.34766 L 421.42188 32.132812 L 421.63477 31.976562 L 435.02539 48.558594 L 441.12695 41.173828 L 460.04688 14.703125 z M 521.66406 84.191406 L 322.65625 354.52734 L 618.81641 355.00781 L 683.03906 355.00781 L 682.65625 351.16797 L 522.14453 84.671875 L 521.95117 84.480469 L 521.66406 84.191406 z "
     transform="scale(10.416666)" /></svg>
