<?xml version="1.0" encoding="UTF-8" standalone="no"?>
<!-- Generator: Adobe Illustrator 14.0.0, SVG Export Plug-In . SVG Version: 6.00 Build 43363)  -->

<svg
   version="1.1"
   id="Layer_1"
   x="0px"
   y="0px"
   width="238.58203"
   height="140.55078"
   viewBox="0 0 238.58203 140.55078"
   enable-background="new 0 0 250 190"
   xml:space="preserve"
   inkscape:version="1.1.2 (0a00cf5339, 2022-02-04, custom)"
   sodipodi:docname="logo_under_armour.svg"
   xmlns:inkscape="http://www.inkscape.org/namespaces/inkscape"
   xmlns:sodipodi="http://sodipodi.sourceforge.net/DTD/sodipodi-0.dtd"
   xmlns="http://www.w3.org/2000/svg"
   xmlns:svg="http://www.w3.org/2000/svg"
   xmlns:rdf="http://www.w3.org/1999/02/22-rdf-syntax-ns#"
   xmlns:cc="http://creativecommons.org/ns#"
   xmlns:dc="http://purl.org/dc/elements/1.1/"><metadata
     id="metadata35"><rdf:RDF><cc:Work
         rdf:about=""><dc:format>image/svg+xml</dc:format><dc:type
           rdf:resource="http://purl.org/dc/dcmitype/StillImage" /></cc:Work></rdf:RDF></metadata><defs
     id="defs33" /><sodipodi:namedview
     pagecolor="#ffffff"
     bordercolor="#666666"
     borderopacity="1"
     objecttolerance="10"
     gridtolerance="10"
     guidetolerance="10"
     inkscape:pageopacity="0"
     inkscape:pageshadow="2"
     inkscape:window-width="1920"
     inkscape:window-height="1009"
     id="namedview31"
     showgrid="false"
     fit-margin-top="0"
     fit-margin-left="0"
     fit-margin-right="0"
     fit-margin-bottom="0"
     inkscape:zoom="1.2421053"
     inkscape:cx="32.605931"
     inkscape:cy="49.915253"
     inkscape:window-x="-8"
     inkscape:window-y="-8"
     inkscape:window-maximized="1"
     inkscape:current-layer="Layer_1"
     inkscape:pagecheckerboard="0" /><path
     id="path5"
     style="fill:#000000;fill-opacity:1"
     d="M 63.652344 0 C 63.652344 0 48.729016 1.6516094 29.166016 8.8496094 C 6.8810148 17.034609 0 22.361328 0 22.361328 C 0.92489711 41.52495 18.005151 58.794821 44.164062 70.291016 C 18.019894 81.788135 0.94791716 99.049836 0.0234375 118.20312 C 0.0234375 118.20312 6.9182648 123.51503 29.197266 131.70703 C 48.759266 138.90503 63.691406 140.55078 63.691406 140.55078 L 63.615234 97.878906 C 63.615234 91.496723 66.178875 84.977903 71.019531 79.214844 C 85.804888 82.788542 102.1283 84.802652 119.26367 84.806641 L 119.27734 84.806641 C 136.43441 84.802641 152.77877 82.784923 167.58008 79.203125 C 172.42808 84.969043 174.99609 91.492426 174.99609 97.878906 L 174.92188 140.55078 C 174.92188 140.55078 189.84406 138.90503 209.41406 131.70703 C 231.70006 123.51503 238.58203 118.20312 238.58203 118.20312 C 237.66164 99.041738 220.57745 81.774443 194.41602 70.277344 C 220.56092 58.781128 237.63213 41.517249 238.55273 22.361328 C 238.55273 22.361328 231.67077 17.034609 209.38477 8.8496094 C 189.82973 1.6526094 174.89258 1.1842379e-15 174.89258 0 L 174.9668 42.679688 C 174.9668 49.064343 172.40181 55.584122 167.55859 61.349609 C 152.77091 57.774684 136.44548 55.759757 119.30859 55.753906 C 102.14958 55.759806 85.804565 57.780189 71.001953 61.363281 C 66.152582 55.594422 63.583984 49.069415 63.583984 42.679688 L 63.652344 0 z M 119.29297 60.679688 L 119.30859 60.679688 L 119.79883 60.695312 C 135.27532 60.695312 147.8904 64.485257 157.14062 70.273438 C 147.88769 76.074156 135.26089 79.873047 119.76758 79.873047 L 118.77148 79.873047 C 103.29688 79.873047 90.683683 76.082965 81.435547 70.292969 C 90.687513 64.49357 103.315 60.695313 118.81055 60.695312 L 119.29297 60.679688 z " /></svg>
