<?xml version="1.0" encoding="UTF-8" standalone="no"?>
<!-- Created with Inkscape (http://www.inkscape.org/) -->

<svg
   width="80.511513mm"
   height="16.877705mm"
   viewBox="0 0 285.27701 59.80289"
   id="svg4162"
   version="1.1"
   inkscape:version="1.1.2 (0a00cf5339, 2022-02-04, custom)"
   sodipodi:docname="logo_reebok.svg"
   xmlns:inkscape="http://www.inkscape.org/namespaces/inkscape"
   xmlns:sodipodi="http://sodipodi.sourceforge.net/DTD/sodipodi-0.dtd"
   xmlns="http://www.w3.org/2000/svg"
   xmlns:svg="http://www.w3.org/2000/svg"
   xmlns:rdf="http://www.w3.org/1999/02/22-rdf-syntax-ns#"
   xmlns:cc="http://creativecommons.org/ns#"
   xmlns:dc="http://purl.org/dc/elements/1.1/">
  <defs
     id="defs4164" />
  <sodipodi:namedview
     id="base"
     pagecolor="#ffffff"
     bordercolor="#666666"
     borderopacity="1.0"
     inkscape:pageopacity="0.0"
     inkscape:pageshadow="2"
     inkscape:zoom="0.35"
     inkscape:cx="-702.85714"
     inkscape:cy="-542.85714"
     inkscape:document-units="px"
     inkscape:current-layer="layer1"
     showgrid="false"
     fit-margin-top="0"
     fit-margin-left="0"
     fit-margin-right="0"
     fit-margin-bottom="0"
     inkscape:window-width="1920"
     inkscape:window-height="1009"
     inkscape:window-x="-8"
     inkscape:window-y="-8"
     inkscape:window-maximized="1"
     inkscape:pagecheckerboard="0" />
  <metadata
     id="metadata4167">
    <rdf:RDF>
      <cc:Work
         rdf:about="">
        <dc:format>image/svg+xml</dc:format>
        <dc:type
           rdf:resource="http://purl.org/dc/dcmitype/StillImage" />
      </cc:Work>
    </rdf:RDF>
  </metadata>
  <g
     inkscape:label="Layer 1"
     inkscape:groupmode="layer"
     id="layer1"
     transform="translate(0,0)">
    <path
       id="path22"
       style="fill:#000000;fill-opacity:1;stroke-width:1.06667"
       d="M 0 0 L 0 62.191406 L 12.148438 62.191406 L 12.140625 34.414062 L 37.121094 62.191406 L 52.537109 62.191406 L 29.486328 36.521484 C 30.636195 36.600418 31.796693 36.644531 32.943359 36.644531 C 40.849493 36.644531 50.683594 31.62702 50.683594 19.001953 C 50.683594 3.7699536 38.068045 7.1054274e-15 26.892578 0 L 0 0 z M 155.57227 0.001953125 L 155.57227 62.193359 L 157.67773 62.193359 C 157.67773 62.193359 163.00338 59.188157 163.28711 59.087891 C 164.06471 59.923091 169.30595 63.78125 176.57422 63.78125 C 177.49902 63.78125 178.2991 63.802583 179.2207 63.78125 C 191.3679 63.488983 200.15625 55.948915 200.15625 43.478516 L 200.15625 32.613281 C 200.15625 20.393548 191.31099 12.28125 179.09766 12.28125 C 173.51792 12.28125 169.70525 13.800849 167.56445 15.603516 L 167.56445 0.001953125 L 155.57227 0.001953125 z M 257.12891 0.00390625 L 257.12891 62.191406 L 269.17969 62.191406 L 269.17969 40.113281 L 289.12695 62.193359 L 304.29492 62.193359 L 281.41797 36.837891 L 303.1543 12.173828 L 288.15625 12.173828 C 287.13332 13.332228 269.17969 33.722656 269.17969 33.722656 L 269.17969 0.00390625 L 257.12891 0.00390625 z M 12.148438 10.644531 L 26.751953 10.644531 C 33.52422 10.644531 39.460938 12.768704 39.460938 19.148438 C 39.460938 25.568704 35.73542 27.900391 26.751953 27.900391 L 12.148438 27.900391 L 12.148438 10.644531 z M 227.30664 12.191406 C 215.04744 12.554073 206.24219 19.70338 206.24219 32.498047 L 206.24219 43.361328 C 206.24219 56.050395 214.97346 63.200243 227.18359 63.662109 C 227.92919 63.688776 229.13924 63.684509 229.82617 63.662109 C 242.04484 63.275976 250.77148 56.127195 250.77148 43.361328 L 250.77148 32.498047 C 250.77148 19.779114 242.04782 12.554073 229.71289 12.191406 C 229.13156 12.17434 227.93277 12.173273 227.30664 12.191406 z M 75.097656 12.195312 C 62.758456 12.605979 54.037109 19.7416 54.037109 32.5 L 54.037109 43.367188 C 54.037109 55.521854 63.107231 63.121129 74.832031 63.664062 C 76.076831 63.720596 76.717325 63.664062 77.578125 63.664062 C 92.238391 63.664062 97.679368 56.206728 98.365234 47.736328 L 87.341797 47.736328 C 87.012197 49.309661 86.519888 53.443359 77.232422 53.443359 C 75.628155 53.443359 73.389452 53.067256 71.761719 52.525391 C 64.893452 50.235257 65.994141 41.774021 65.994141 41.304688 L 98.572266 41.304688 L 98.572266 41.300781 L 98.572266 32.494141 C 98.572266 19.740007 89.643965 12.604912 77.384766 12.195312 C 77.238632 12.192113 75.26619 12.192113 75.097656 12.195312 z M 125.63086 12.195312 C 113.29273 12.605979 104.57031 19.7416 104.57031 32.5 L 104.57031 43.367188 C 104.57031 55.521854 113.6415 63.121129 125.36523 63.664062 C 126.61003 63.720596 127.25035 63.664062 128.11328 63.664062 C 142.76928 63.664062 148.21257 56.206728 148.89844 47.736328 L 137.875 47.736328 C 137.5454 49.309661 137.05309 53.443359 127.76562 53.443359 C 126.15923 53.443359 123.92266 53.067256 122.29492 52.525391 C 115.42664 50.234191 116.52734 41.770115 116.52734 41.300781 L 149.10742 41.300781 L 149.10742 32.494141 C 149.10742 19.740007 140.17718 12.604912 127.91797 12.195312 C 127.77184 12.192113 125.79939 12.192113 125.63086 12.195312 z M 75.488281 22.298828 C 76.024815 22.277495 76.614291 22.279628 77.087891 22.298828 C 82.341224 22.542028 86.740234 25.295882 86.740234 31.666016 L 86.740234 32.533203 L 65.953125 32.533203 C 65.954192 32.365736 65.958984 31.962534 65.958984 31.677734 C 65.958984 25.086801 70.317081 22.540961 75.488281 22.298828 z M 126.02148 22.298828 C 126.56015 22.277495 127.14731 22.279628 127.62305 22.298828 C 132.87211 22.542028 137.27539 25.295882 137.27539 31.666016 L 137.27539 32.533203 L 116.48438 32.533203 C 116.48438 32.365736 116.49023 31.962534 116.49023 31.677734 C 116.49023 25.086801 120.84602 22.540961 126.02148 22.298828 z M 228.46289 22.740234 C 228.73062 22.739435 229.00565 22.749222 229.32031 22.769531 C 234.11925 23.062865 238.78711 25.593903 238.78711 32.470703 L 238.78711 43.441406 C 238.78711 50.233941 234.11618 52.807523 229.35352 53.097656 C 229.12952 53.114723 227.89909 53.116856 227.66016 53.097656 C 222.81429 52.77979 218.22461 50.13794 218.22461 43.441406 L 218.22461 32.470703 C 218.22461 25.544837 222.82922 23.058598 227.66016 22.769531 C 227.93642 22.752465 228.19516 22.741034 228.46289 22.740234 z M 177.81445 22.837891 C 178.08325 22.837224 178.35881 22.843152 178.67188 22.861328 C 183.47294 23.155728 188.13672 25.683567 188.13672 32.5625 L 188.13672 43.53125 C 188.13672 50.326983 183.46579 52.900206 178.70312 53.191406 C 178.48233 53.204206 177.25065 53.207406 177.01172 53.191406 C 172.16585 52.871405 167.57812 50.229917 167.57812 43.53125 L 167.57812 32.5625 C 167.57812 25.639833 172.18417 23.151461 177.00977 22.861328 C 177.2855 22.845861 177.54565 22.838563 177.81445 22.837891 z "
       transform="scale(0.93750001)" />
  </g>
</svg>
