<?xml version="1.0" encoding="UTF-8" standalone="no"?>
<!-- Generator: Adobe Illustrator 16.0.0, SVG Export Plug-In . SVG Version: 6.00 Build 0) -->

<svg
   version="1.1"
   id="Layer_1"
   x="0px"
   y="0px"
   width="187.09111"
   height="60.446342"
   viewBox="0 0 187.09111 60.446344"
   xml:space="preserve"
   inkscape:version="1.1.2 (0a00cf5339, 2022-02-04, custom)"
   sodipodi:docname="logo_rawlings.svg"
   xmlns:inkscape="http://www.inkscape.org/namespaces/inkscape"
   xmlns:sodipodi="http://sodipodi.sourceforge.net/DTD/sodipodi-0.dtd"
   xmlns="http://www.w3.org/2000/svg"
   xmlns:svg="http://www.w3.org/2000/svg"
   xmlns:rdf="http://www.w3.org/1999/02/22-rdf-syntax-ns#"
   xmlns:cc="http://creativecommons.org/ns#"
   xmlns:dc="http://purl.org/dc/elements/1.1/"><metadata
     id="metadata21"><rdf:RDF><cc:Work
         rdf:about=""><dc:format>image/svg+xml</dc:format><dc:type
           rdf:resource="http://purl.org/dc/dcmitype/StillImage" /></cc:Work></rdf:RDF></metadata><defs
     id="defs19" /><sodipodi:namedview
     pagecolor="#ffffff"
     bordercolor="#666666"
     borderopacity="1"
     objecttolerance="10"
     gridtolerance="10"
     guidetolerance="10"
     inkscape:pageopacity="0"
     inkscape:pageshadow="2"
     inkscape:window-width="1920"
     inkscape:window-height="1009"
     id="namedview17"
     showgrid="false"
     fit-margin-top="0"
     fit-margin-left="0"
     fit-margin-right="0"
     fit-margin-bottom="0"
     inkscape:zoom="1.2243458"
     inkscape:cx="70.649975"
     inkscape:cy="30.22022"
     inkscape:window-x="-8"
     inkscape:window-y="-8"
     inkscape:window-maximized="1"
     inkscape:current-layer="Layer_1"
     inkscape:pagecheckerboard="0" /><path
     id="path7"
     style="clip-rule:evenodd;fill:#000000;fill-opacity:1;fill-rule:evenodd;stroke:none"
     d="M 108.5 0.005859375 C 104.18099 -0.27399563 99.520012 10.426609 96.681641 18.115234 C 95.546641 21.186234 94.534781 24.957875 94.050781 28.546875 C 92.630781 28.877875 91.451328 28.753734 90.736328 28.177734 C 91.534328 23.372734 90.813598 19.772578 88.933594 20.017578 C 85.417594 20.475578 86.793608 28.119109 87.099609 30.412109 C 86.029609 36.985114 82.818375 39.506344 80.984375 39.277344 C 79.761375 39.124344 79.302047 36.832404 80.373047 33.316406 L 83.660156 22.005859 L 78.310547 22.615234 L 75.177734 33.009766 C 73.495734 38.664765 70.896812 39.888672 70.132812 39.888672 C 69.367812 39.888672 68.604797 40.040719 69.216797 37.136719 L 73.34375 23.228516 L 67.916016 23.916016 L 65.394531 32.705078 C 63.407531 39.431074 59.890969 41.876953 58.667969 41.876953 C 57.444969 41.876953 56.680969 40.501344 57.292969 37.902344 L 61.113281 24.679688 L 56.833984 25.0625 C 55.840984 25.0625 55.382 25.368812 55 26.132812 C 54.389 25.674813 53.172844 25.2455 51.714844 25.0625 C 50.491844 24.9095 43.993203 26.285061 40.783203 34.539062 C 37.436203 43.145063 40.784125 47.532875 44.453125 48.296875 C 48.121125 49.061875 50.261687 46.310922 52.554688 44.169922 C 55.611688 50.437922 61.724578 44.322938 64.017578 42.335938 C 67.685578 47.532938 73.494125 42.945328 75.328125 41.111328 C 76.704125 44.932328 82.818984 44.473656 84.958984 41.722656 C 87.367985 38.545656 89.005656 34.911154 89.972656 31.535156 C 91.294656 31.848156 92.560625 31.919875 93.765625 31.796875 C 93.595625 36.723874 94.807966 40.685797 98.667969 40.966797 C 102.87297 41.273797 105.54878 37.833813 106.92578 36.382812 C 107.07778 37.681812 108.29911 39.744797 111.66211 39.591797 C 116.09411 39.515797 122.59031 24.687844 124.19531 22.089844 C 125.16631 20.517844 125.72462 21.324516 125.26562 22.853516 L 121.0625 37.146484 L 126.48828 36.457031 C 130.61528 20.254028 134.28478 19.797219 135.05078 19.949219 C 135.81478 20.102219 135.66145 21.782187 134.43945 24.992188 C 133.21745 28.202188 131.22878 34.470688 135.05078 36.304688 C 138.78278 38.096688 142.58797 34.197395 144.04297 30.025391 C 144.53697 33.255391 146.51638 35.041172 148.73438 35.451172 C 150.79638 35.834172 152.47848 35.298395 154.77148 32.775391 C 154.77148 32.775391 154.39617 34.076016 153.82617 36.041016 C 149.31017 40.422016 144.07048 45.754031 142.77148 47.832031 C 141.24448 50.277031 138.61394 56.607406 143.46094 59.066406 C 148.73394 61.742406 153.39664 54.481203 155.30664 47.908203 L 159.0332 35.367188 C 161.4222 33.522191 163.52352 31.294094 165.35352 28.996094 C 175.98452 39.346095 185.66575 24.410984 186.71875 22.458984 C 187.78475 20.470984 186.33367 18.941063 185.26367 20.164062 C 184.49967 21.693062 182.81839 23.527798 180.52539 25.591797 C 180.52539 23.757797 179.76156 18.866734 179.22656 16.802734 C 178.69156 14.739734 178.61541 10.917328 178.69141 9.2363281 C 178.76741 7.5543281 174.64012 5.643375 173.95312 7.859375 C 171.16012 16.727375 164.41231 25.401844 160.82031 29.339844 L 166.15625 11.375 L 161.87695 11.757812 C 160.73095 12.216812 160.42597 12.674453 160.04297 13.439453 C 159.43197 12.675453 158.28666 12.064453 156.22266 12.064453 C 155.15666 12.064453 148.57814 13.438359 145.36914 21.693359 C 145.08814 22.413359 144.85316 23.105578 144.66016 23.767578 L 144.75195 22.699219 C 139.70895 37.144215 137.79845 30.801125 138.56445 28.203125 L 140.55078 21.630859 C 141.77378 17.656859 141.31645 15.362312 138.56445 14.445312 C 135.81245 13.528313 133.06056 15.974562 131.22656 18.726562 C 129.08756 13.835562 125.03747 15.74575 123.35547 18.34375 C 121.67347 20.94175 117.77542 29.044562 115.48242 32.101562 C 112.11942 36.839565 111.96613 34.010754 112.57812 31.71875 L 116.55273 17.962891 L 111.05078 18.726562 L 107.99219 29.578125 C 99.586189 43.564124 97.827938 35.081604 98.210938 30.724609 C 98.212937 30.617609 98.216703 30.506484 98.220703 30.396484 C 103.2207 27.738484 106.83616 22.03675 108.91016 18.34375 C 112.04316 12.76375 114.48812 3.4409375 109.82812 0.4609375 C 109.39106 0.1814685 108.94679 0.034810375 108.5 0.005859375 z M 108.82227 5.8007812 C 108.9697 5.7779612 109.10178 5.8060787 109.21484 5.8867188 C 110.55884 6.8477188 107.22691 14.445921 106.00391 17.044922 C 104.11891 21.192921 101.45675 24.229016 98.84375 26.166016 C 100.78437 17.658204 106.61089 6.1431152 108.82227 5.8007812 z M 117.31641 6.6269531 C 115.76341 6.6269531 114.50586 7.9803437 114.50586 9.6523438 C 114.50686 11.323344 115.76441 12.679688 117.31641 12.679688 C 118.86941 12.679688 120.12695 11.323344 120.12695 9.6523438 C 120.12695 7.9803438 118.86941 6.6269531 117.31641 6.6269531 z M 30.845703 8.84375 C 18.243616 9.079112 7.7572499 21.934609 2.7226562 33.927734 C -2.4743439 46.309734 0.27726549 57.773109 6.6972656 59.912109 C 13.117266 62.053119 16.403297 57.315484 17.779297 53.646484 L 22.900391 37.826172 C 23.282391 36.602172 23.588375 36.525391 24.734375 36.525391 C 27.562375 36.449391 28.861656 44.627422 29.472656 47.607422 C 30.009656 50.222422 32.916719 58.529125 51.636719 58.078125 C 92.606719 57.091125 126.26914 43.113984 131.11914 40.958984 C 132.49714 40.348984 132.03877 38.820297 130.50977 39.279297 C 120.45477 42.540297 88.595406 53.391813 47.816406 51.507812 C 36.195406 50.970813 35.435734 44.247266 35.052734 42.947266 C 34.329735 40.488266 31.995141 35.839219 30.619141 35.074219 C 41.472141 33.393223 43.841141 24.757844 43.994141 22.464844 C 44.147141 20.171844 45.216313 9.4723281 32.070312 8.8613281 C 31.659499 8.8421981 31.252222 8.83616 30.845703 8.84375 z M 30.648438 11.412109 C 31.965851 11.380399 33.218828 11.684453 34.365234 12.376953 C 41.702235 16.810953 36.504 32.094734 26.875 31.177734 C 25.882 31.024734 25.805672 30.336422 26.263672 28.732422 C 26.722672 27.127421 28.633594 21.624359 31.308594 19.943359 C 31.766594 19.790359 31.536297 19.331203 31.154297 19.408203 C 28.937297 19.713203 22.289422 23.993048 19.232422 33.623047 L 13.117188 51.966797 C 12.200188 54.565797 9.9082354 57.929719 7.6152344 55.636719 C 5.3232349 53.343719 5.5758434 44.103345 10.214844 32.402344 C 14.535688 21.502782 23.534399 11.583349 30.648438 11.412109 z M 173.80078 15.962891 C 174.71678 20.852891 175.17581 25.668578 172.88281 28.267578 C 170.73481 30.702578 169.79287 28.036687 167.79688 25.679688 C 170.60387 21.592688 172.57378 17.760891 173.80078 15.962891 z M 156.4375 16.644531 C 156.6171 16.651331 156.80008 16.678812 156.98633 16.726562 C 159.58333 17.720562 157.44247 22.839016 157.0625 24.291016 C 156.6795 25.744016 153.47077 31.936234 150.25977 30.865234 C 148.30877 30.215234 150.03027 24.367203 150.94727 22.533203 C 151.8079 20.813828 153.74347 16.542263 156.4375 16.644531 z M 51.927734 29.792969 C 52.105658 29.802069 52.288358 29.829143 52.474609 29.876953 C 54.767608 30.716953 52.704266 35.684719 52.322266 37.136719 C 51.940266 38.588719 49.417031 44.322953 46.207031 43.251953 C 44.254031 42.601953 45.750016 37.212906 46.666016 35.378906 C 47.524766 33.659538 49.258877 29.656369 51.927734 29.792969 z M 167.76367 35.326172 C 165.56867 35.326172 163.78711 37.052156 163.78711 39.160156 C 163.78711 41.312156 165.56767 43.039062 167.76367 43.039062 C 169.94767 43.039062 171.71875 41.312156 171.71875 39.160156 C 171.71875 37.052156 169.94667 35.326172 167.76367 35.326172 z M 167.76367 36.080078 C 169.53367 36.080078 170.96484 37.456156 170.96484 39.160156 C 170.96484 40.919156 169.53267 42.285156 167.76367 42.285156 C 165.97267 42.285156 164.54102 40.919156 164.54102 39.160156 C 164.54102 37.456156 165.97267 36.080078 167.76367 36.080078 z M 166.29102 37.019531 L 166.29102 41.333984 L 166.94531 41.333984 L 166.94531 39.347656 L 167.7207 39.347656 L 168.98828 41.333984 L 169.74219 41.333984 L 168.39844 39.347656 C 169.18644 39.325656 169.79687 39.00825 169.79688 38.15625 C 169.79688 37.79625 169.63269 37.413562 169.30469 37.226562 C 168.96669 37.040563 168.59561 37.019531 168.22461 37.019531 L 166.29102 37.019531 z M 166.94531 37.511719 L 168.09375 37.511719 C 168.65075 37.511719 169.14062 37.589514 169.14062 38.146484 C 169.14163 38.921484 168.28902 38.8125 167.66602 38.8125 L 166.94531 38.8125 L 166.94531 37.511719 z M 152.28711 41.279297 C 150.95311 45.793297 149.41613 50.899938 148.57812 53.335938 C 146.89812 58.227938 141.69866 56.315344 145.59766 50.277344 C 146.34966 49.112344 148.38911 45.422297 152.28711 41.279297 z " /></svg>
