<?xml version="1.0" encoding="UTF-8" standalone="no"?>
<svg
   version="1.1"
   width="200"
   height="72"
   viewBox="135.5 361.375 200 72"
   overflow="visible"
   enable-background="new 135.5 361.375 200 72"
   xml:space="preserve"
   id="svg4"
   sodipodi:docname="logo_nike.svg"
   inkscape:version="1.1.2 (0a00cf5339, 2022-02-04, custom)"
   xmlns:inkscape="http://www.inkscape.org/namespaces/inkscape"
   xmlns:sodipodi="http://sodipodi.sourceforge.net/DTD/sodipodi-0.dtd"
   xmlns="http://www.w3.org/2000/svg"
   xmlns:svg="http://www.w3.org/2000/svg"><defs
     id="defs8" /><sodipodi:namedview
     id="namedview6"
     pagecolor="#ffffff"
     bordercolor="#666666"
     borderopacity="1.0"
     inkscape:pageshadow="2"
     inkscape:pageopacity="0.0"
     inkscape:pagecheckerboard="0"
     showgrid="false"
     inkscape:zoom="5.29"
     inkscape:cx="94.612476"
     inkscape:cy="35.916824"
     inkscape:window-width="1920"
     inkscape:window-height="1009"
     inkscape:window-x="-8"
     inkscape:window-y="-8"
     inkscape:window-maximized="1"
     inkscape:current-layer="svg4" /><path
     id="path2"
     d="M 30.4375 0.765625 C 30.4105 0.765625 26.227266 5.3809844 24.822266 6.9589844 C 15.284266 17.682984 9.8164375 25.425422 6.2734375 33.232422 C 2.1354375 42.351422 1.0481094 50.660188 3.1621094 56.992188 C 3.8491094 59.049187 4.8795313 60.903594 6.3945312 62.808594 C 6.9645312 63.525594 8.6639531 65.225969 9.3769531 65.792969 C 13.112953 68.760969 17.890469 70.359797 23.730469 70.591797 C 30.225469 70.849797 38.260469 69.345312 47.230469 66.195312 C 50.739469 64.963313 52.735219 64.157797 60.199219 60.966797 C 107.33022 40.811797 198.12038 1.962125 198.10938 1.953125 C 198.10438 1.946125 166.13064 10.445797 127.05664 20.841797 C 87.982641 31.236797 55.476313 39.865578 54.820312 40.017578 C 45.292313 42.212578 37.489156 41.995766 32.160156 39.384766 C 29.116156 37.892766 26.409078 35.194125 24.830078 32.078125 C 22.541078 27.555125 22.318781 21.722781 24.175781 14.925781 C 25.331781 10.689781 27.453594 5.7965781 29.933594 1.6425781 C 30.220594 1.1615781 30.4475 0.765625 30.4375 0.765625 z "
     transform="translate(135.5,361.375)" /></svg>
