<?xml version="1.0" encoding="UTF-8" standalone="no"?>
<!-- Created with Inkscape (http://www.inkscape.org/) -->

<svg
   version="1.0"
   width="451.0528"
   height="351.21362"
   id="svg2347"
   inkscape:version="1.1.2 (0a00cf5339, 2022-02-04, custom)"
   sodipodi:docname="logo_puma.svg"
   xmlns:inkscape="http://www.inkscape.org/namespaces/inkscape"
   xmlns:sodipodi="http://sodipodi.sourceforge.net/DTD/sodipodi-0.dtd"
   xmlns="http://www.w3.org/2000/svg"
   xmlns:svg="http://www.w3.org/2000/svg"
   xmlns:rdf="http://www.w3.org/1999/02/22-rdf-syntax-ns#"
   xmlns:cc="http://creativecommons.org/ns#"
   xmlns:dc="http://purl.org/dc/elements/1.1/">
  <metadata
     id="metadata15">
    <rdf:RDF>
      <cc:Work
         rdf:about="">
        <dc:format>image/svg+xml</dc:format>
        <dc:type
           rdf:resource="http://purl.org/dc/dcmitype/StillImage" />
      </cc:Work>
    </rdf:RDF>
  </metadata>
  <sodipodi:namedview
     pagecolor="#ffffff"
     bordercolor="#666666"
     borderopacity="1"
     objecttolerance="10"
     gridtolerance="10"
     guidetolerance="10"
     inkscape:pageopacity="0"
     inkscape:pageshadow="2"
     inkscape:window-width="1920"
     inkscape:window-height="1009"
     id="namedview13"
     showgrid="false"
     fit-margin-top="0"
     fit-margin-left="0"
     fit-margin-right="0"
     fit-margin-bottom="0"
     inkscape:zoom="0.30103705"
     inkscape:cx="-207.61564"
     inkscape:cy="83.046256"
     inkscape:window-x="-8"
     inkscape:window-y="-8"
     inkscape:window-maximized="1"
     inkscape:current-layer="svg2347"
     inkscape:pagecheckerboard="0" />
  <defs
     id="defs2349" />
  <path
     id="path20"
     style="fill:#000000;fill-rule:nonzero;stroke:none"
     d="M 437.59375 0.0078125 C 431.14383 0.20425303 424.40414 4.1576312 420.64258 6.3867188 C 377.63559 31.909559 371.29718 76.937712 356.4043 102.79492 C 344.52055 123.45552 325.19706 138.62722 307.92188 139.86719 C 294.96535 140.82852 281.00721 138.20951 267.10352 132.10742 C 233.29134 117.28409 214.79037 98.141169 210.42969 94.755859 C 201.34633 87.748179 130.82317 18.521489 73.689453 15.693359 C 73.689453 15.693359 66.597663 1.4966056 64.814453 1.2597656 C 60.635013 0.73033562 56.357939 9.7442625 53.292969 10.789062 C 50.409109 11.750393 45.562121 1.0243569 42.650391 1.4980469 C 39.752601 1.9438769 36.965774 12.615088 31.365234 18.173828 C 27.269384 22.186088 22.156123 21.934771 19.439453 26.894531 C 18.408463 28.747401 18.742576 31.910156 17.572266 34.947266 C 15.287496 41.021386 7.2363281 41.564051 7.2363281 48.181641 C 7.2084281 55.328531 13.949729 56.694515 19.787109 61.765625 C 24.342729 65.847545 24.789701 68.662365 30.306641 70.640625 C 35.015511 72.242835 42.022904 67.004026 48.333984 68.884766 C 53.516544 70.431246 58.476174 71.545307 59.646484 76.867188 C 60.677464 81.771107 59.576139 89.37773 53.292969 88.5 C 51.175379 88.26315 41.995488 85.170961 30.710938 86.369141 C 17.099708 87.915501 1.565375 92.35961 0.046875 107.53125 C -0.789055 116.01564 9.7016881 126.01837 19.830078 123.98438 C 26.837648 122.60507 23.522534 114.34429 27.339844 110.33203 C 32.341294 105.19126 60.676754 128.27539 87.021484 128.27539 C 98.111084 128.27539 106.35897 125.47449 114.55078 116.89258 C 115.31694 116.23787 116.25131 114.83165 117.43555 114.74805 C 118.55002 114.83165 120.49986 115.93255 121.14062 116.40625 C 142.35863 133.45851 158.3937 167.66042 236.36914 168.06445 C 247.33335 168.12015 259.83125 173.35778 270.0293 182.66406 C 279.1266 191.07879 284.44856 204.16065 289.61719 217.4375 C 297.4189 237.35981 311.40542 256.7385 332.60938 278.30469 C 333.76574 279.46107 351.22212 293.03189 352.61523 294.04883 C 352.83815 294.18815 354.11966 297.25325 353.67383 298.9668 C 353.15834 311.89546 351.27818 349.49569 379.30859 351.19531 C 386.16302 351.54362 384.36523 346.72396 384.36523 343.4082 C 384.35133 336.86028 383.15429 330.35352 386.60938 323.65234 C 391.33218 314.42966 376.59154 310.18026 377.02344 290.24414 C 377.32995 275.37901 364.84675 277.91434 358.50781 266.58789 C 354.85768 260.02614 351.61276 256.54416 351.84961 248.51953 C 353.2707 203.35315 342.23543 173.6788 336.73242 166.39258 C 332.44152 160.88957 328.8897 158.70182 332.81836 156.15234 C 356.20968 140.70217 361.51758 126.32422 361.51758 126.32422 C 373.9585 97.081699 385.14605 70.375538 400.56836 58.617188 C 403.67513 56.193087 411.6431 50.244797 416.5332 47.904297 C 430.92452 41.119527 438.50404 37.009506 442.68359 32.941406 C 449.30107 26.491116 454.52449 13.046504 448.18555 4.8964844 C 445.22856 1.1244606 441.4637 -0.11005182 437.59375 0.0078125 z " />
</svg>
