<?xml version="1.0" encoding="UTF-8" standalone="no"?>
<!-- Created with Inkscape (http://www.inkscape.org/) -->

<svg
   version="1.2"
   width="1595.6567"
   height="319.19275"
   id="svg2"
   inkscape:version="1.1.2 (0a00cf5339, 2022-02-04, custom)"
   sodipodi:docname="logo_macron.svg"
   xmlns:inkscape="http://www.inkscape.org/namespaces/inkscape"
   xmlns:sodipodi="http://sodipodi.sourceforge.net/DTD/sodipodi-0.dtd"
   xmlns="http://www.w3.org/2000/svg"
   xmlns:svg="http://www.w3.org/2000/svg"
   xmlns:rdf="http://www.w3.org/1999/02/22-rdf-syntax-ns#"
   xmlns:cc="http://creativecommons.org/ns#"
   xmlns:dc="http://purl.org/dc/elements/1.1/">
  <sodipodi:namedview
     pagecolor="#ffffff"
     bordercolor="#666666"
     borderopacity="1"
     objecttolerance="10"
     gridtolerance="10"
     guidetolerance="10"
     inkscape:pageopacity="0"
     inkscape:pageshadow="2"
     inkscape:window-width="1920"
     inkscape:window-height="1009"
     id="namedview27"
     showgrid="false"
     fit-margin-top="0"
     fit-margin-left="0"
     fit-margin-right="0"
     fit-margin-bottom="0"
     inkscape:zoom="0.24756139"
     inkscape:cx="1484.4803"
     inkscape:cy="-20.197011"
     inkscape:window-x="-8"
     inkscape:window-y="-8"
     inkscape:window-maximized="1"
     inkscape:current-layer="svg2"
     inkscape:pagecheckerboard="0" />
  <defs
     id="defs4" />
  <metadata
     id="metadata7">
    <rdf:RDF>
      <cc:Work
         rdf:about="">
        <dc:format>image/svg+xml</dc:format>
        <dc:type
           rdf:resource="http://purl.org/dc/dcmitype/StillImage" />
      </cc:Work>
    </rdf:RDF>
  </metadata>
  <path
     id="path840"
     style="fill:#000000;stroke:none"
     d="M 1186.791 0.013671875 C 1168.5572 0.14888904 1160.9129 1.3315732 1147.9629 5.3574219 C 1129.7557 11.017582 1103.5509 24.231986 1098.5273 30.285156 C 1094.8508 34.715016 1108.3275 77.202728 1121.6602 103.21484 C 1138.3677 135.81102 1152.9658 152.04613 1174.7441 162.25195 C 1190.2549 169.52068 1217.8055 167.54875 1238.9453 157.65625 C 1266.8032 144.61997 1300.7578 117.67103 1323.4004 90.626953 L 1333.2129 78.904297 L 1324.2773 65.929688 C 1306.0669 39.488906 1277.0694 18.145755 1243.8008 6.6972656 C 1227.2858 1.0140756 1221.1364 0.16652188 1195.3008 0.013671875 C 1192.2174 -0.004570625 1189.3958 -0.0056448632 1186.791 0.013671875 z M 1076.5664 52.078125 C 1072.3588 52.056897 1060.3758 67.902474 1050.9785 86.677734 C 1037.9388 112.73036 1033.5138 134.93074 1034.8633 167.53125 C 1035.7048 187.86015 1037.3654 197.91932 1042.0859 211.28906 C 1054.1535 245.46797 1074.9322 272.28831 1104.8574 292.31641 C 1118.7342 301.60371 1123.2851 303.65384 1123.8438 300.86914 C 1124.5448 297.37394 1080.5838 60.481893 1077.8633 53.095703 C 1077.6097 52.407261 1077.1675 52.081158 1076.5664 52.078125 z M 1011.6934 68.488281 C 999.78628 68.139157 982.03586 72.072265 970.53906 77.914062 C 958.47916 84.042032 943.7855 97.463211 937.0625 108.48828 L 932.5918 115.81836 L 932.58203 95.109375 L 932.57227 74.398438 L 900.61719 74.398438 L 868.66406 74.398438 L 868.66406 193.92773 L 868.66602 193.92773 L 868.66602 313.45898 L 902.98633 313.45898 L 937.30664 313.45898 L 937.30664 252.03516 C 937.30664 217.63971 938.41301 185.45447 939.82031 178.89258 C 943.42411 162.08859 953.82848 147.02244 967.30078 139.10352 C 977.74118 132.96673 980.71886 132.38867 1001.8047 132.38867 L 1024.8828 132.38867 L 1024.8828 101.33594 L 1024.8828 70.283203 L 1016.4023 68.90625 C 1014.975 68.674629 1013.3944 68.538156 1011.6934 68.488281 z M 1508.0371 68.712891 C 1482.5619 69.122969 1461.2727 77.911861 1444.7617 94.900391 L 1434.3613 105.60156 L 1434.3613 90 L 1434.3613 74.398438 L 1402.4082 74.398438 L 1370.4531 74.398438 L 1370.4531 193.92773 L 1370.4531 313.45898 L 1404.7734 313.45898 L 1439.0957 313.45898 L 1439.0957 242.56641 C 1439.0957 200.94286 1440.1447 166.77682 1441.6387 159.81055 C 1447.0393 134.62831 1461.3474 122.95659 1486.8438 122.93359 C 1506.0984 122.91632 1513.3445 127.33827 1521.9375 144.3457 C 1527.8378 156.02355 1527.857 156.28437 1528.6836 234.75781 L 1529.5137 313.45898 L 1562.584 313.45898 L 1595.6562 313.45898 L 1594.7578 221.74023 C 1593.9367 138.02869 1593.4564 128.95124 1589.2598 117.75977 C 1577.9731 87.660836 1560.1251 74.049481 1526.334 69.769531 C 1520.0164 68.96936 1513.916 68.618257 1508.0371 68.712891 z M 137.45312 68.728516 C 131.74513 68.617379 125.97471 68.999491 120.27148 69.917969 C 101.77778 72.896299 89.117791 79.343614 75.150391 92.896484 L 63.90625 103.80664 L 63.90625 89.101562 L 63.90625 74.398438 L 31.953125 74.398438 L 0 74.398438 L 0 193.92773 L 0 313.45898 L 32.917969 313.45898 L 65.835938 313.45898 L 66.646484 235.94141 C 67.440684 159.9721 67.570013 158.1969 73.070312 147.02539 C 83.717213 125.40081 107.93658 116.2752 128.39648 126.17969 C 147.37838 135.36865 147.63389 136.69383 148.65039 231.20703 L 149.53516 313.45898 L 182.32031 313.45898 L 215.10547 313.45898 L 215.83984 233.57422 L 216.57422 153.68945 L 222.49219 143.24805 C 230.29319 129.48265 237.752 124.31628 252.3125 122.5918 C 269.2215 120.58918 283.91634 127.26299 290.11914 139.76172 C 294.31554 148.2177 294.73947 155.5704 295.38867 231.20703 L 296.0957 313.45898 L 329.11719 313.45898 L 362.14062 313.45898 L 362.14062 222.70703 C 362.14063 124.65951 361.51803 118.73861 349.24023 100.18555 C 335.56473 79.520407 311.50347 69.150771 276.85938 68.988281 C 258.72178 68.903211 254.49162 69.750827 240.60742 76.248047 C 231.72812 80.403157 220.55032 88.098314 214.91992 93.933594 L 204.95312 104.26367 L 197.66211 94.65625 C 185.75752 78.970678 162.18777 69.210107 137.45312 68.728516 z M 742.88867 69.029297 C 720.40773 69.276072 698.07629 73.984448 681.33594 83.095703 C 665.24068 91.855813 644.98495 113.94906 636.57812 131.91406 C 627.79585 150.6813 622.58594 174.6572 622.58594 196.29492 C 622.58594 263.2213 663.09639 311.23145 725.46484 318.21875 C 772.92874 323.53625 816.68351 306.78552 837.75391 275.23242 C 846.76221 261.74242 856.83008 235.56721 856.83008 225.63281 C 856.83008 221.4532 854.66107 221.14844 824.92188 221.14844 L 793.01172 221.14844 L 791.44727 227.65625 C 780.04977 275.07775 720.66133 282.85676 699.76953 239.66406 C 687.45423 214.2026 686.93896 178.70348 698.50586 152.54492 C 711.53526 123.07892 739.3504 112.00779 766.4375 125.50586 C 777.132 130.83515 779.60699 133.48074 785.24609 145.60156 L 791.73828 159.55859 L 824.47266 159.58203 L 857.20508 159.60742 L 855.64062 151.91406 C 848.43953 116.54176 833.7468 96.041255 805.3457 81.734375 C 788.0014 72.99727 765.36961 68.782522 742.88867 69.029297 z M 499.42188 69.333984 C 454.21465 69.350734 425.80776 78.82293 406.47266 100.32812 C 395.95676 112.02438 388.17773 130.3025 388.17773 143.31055 L 388.17773 150.14062 L 420.72266 150.11328 L 453.26758 150.08789 L 458.00195 137.6875 C 461.98125 127.264 464.41927 124.43763 473.29688 119.96094 C 491.64603 110.70798 519.98609 113.60591 530.88477 125.84961 C 537.17407 132.91506 538.70565 146.44973 534.02344 153.5957 C 527.66621 163.29804 517.94327 166.54532 477.30664 172.53711 C 417.41194 181.36847 400.26605 189.3101 387.43555 214.16602 C 381.27075 226.10893 380.83424 228.73238 381.55664 249.55078 C 382.09334 265.02088 383.65228 274.70147 386.55078 280.57617 C 396.26518 300.26577 418.41435 314.83447 443.46875 318.01367 C 471.80675 321.60957 508.26818 315.10497 525.63477 303.35547 C 530.09456 300.33817 535.02529 297.0845 536.5918 296.125 C 538.51337 294.9481 540.27484 297.48422 542.00781 303.91992 L 544.57617 313.45898 L 579.05859 313.45898 C 610.96238 313.45898 613.41672 313.14881 611.85938 309.31641 C 610.93358 307.03821 609.05075 301.97767 607.67578 298.07227 C 606.20281 293.88847 604.60162 254.99619 603.7793 203.39648 C 602.44497 119.67021 602.1603 115.40305 597.28906 106.35156 C 590.47921 93.697835 583.65198 87.690063 567.88281 80.470703 C 549.18426 71.910233 533.27414 69.321384 499.42188 69.333984 z M 1344.7266 106.89648 C 1342.781 104.95086 1173.1276 306.80648 1170.1191 314.64648 C 1169.2037 317.03198 1171.6102 318.12509 1179.127 318.74219 C 1194.8379 320.03179 1218.6271 318.07504 1234.2188 314.21094 C 1304.0329 296.90864 1353.8027 232.56396 1353.8027 159.60742 C 1353.8027 141.40472 1348.5131 110.68295 1344.7266 106.89648 z M 537.29492 199.96289 L 537.28125 214.69727 C 537.25623 242.63744 528.33437 260.52421 510.34961 268.69141 C 489.88985 277.98261 456.65532 272.11443 450.26172 258.08203 C 443.20702 242.59863 449.69874 225.0661 465.21094 217.70508 C 470.13364 215.36908 485.43693 211.54946 499.21875 209.2168 C 513.00055 206.88414 527.20518 203.8473 530.78516 202.46875 L 537.29492 199.96289 z " />
</svg>
