<?xml version="1.0" encoding="UTF-8" standalone="no"?>
<!-- Generator: Adobe Illustrator 16.0.0, SVG Export Plug-In . SVG Version: 6.00 Build 0) -->

<svg
   version="1.1"
   id="Layer_1"
   x="0px"
   y="0px"
   width="74.589844"
   height="27.839846"
   viewBox="0 0 74.589845 27.839846"
   xml:space="preserve"
   inkscape:version="1.1.2 (0a00cf5339, 2022-02-04, custom)"
   sodipodi:docname="logo_rbk.svg"
   xmlns:inkscape="http://www.inkscape.org/namespaces/inkscape"
   xmlns:sodipodi="http://sodipodi.sourceforge.net/DTD/sodipodi-0.dtd"
   xmlns="http://www.w3.org/2000/svg"
   xmlns:svg="http://www.w3.org/2000/svg"
   xmlns:rdf="http://www.w3.org/1999/02/22-rdf-syntax-ns#"
   xmlns:cc="http://creativecommons.org/ns#"
   xmlns:dc="http://purl.org/dc/elements/1.1/"><metadata
     id="metadata21"><rdf:RDF><cc:Work
         rdf:about=""><dc:format>image/svg+xml</dc:format><dc:type
           rdf:resource="http://purl.org/dc/dcmitype/StillImage" /></cc:Work></rdf:RDF></metadata><defs
     id="defs19" /><sodipodi:namedview
     pagecolor="#ffffff"
     bordercolor="#666666"
     borderopacity="1"
     objecttolerance="10"
     gridtolerance="10"
     guidetolerance="10"
     inkscape:pageopacity="0"
     inkscape:pageshadow="2"
     inkscape:window-width="1920"
     inkscape:window-height="1009"
     id="namedview17"
     showgrid="false"
     fit-margin-top="0"
     fit-margin-left="0"
     fit-margin-right="0"
     fit-margin-bottom="0"
     inkscape:zoom="3.4629729"
     inkscape:cx="-28.154999"
     inkscape:cy="13.283384"
     inkscape:window-x="-8"
     inkscape:window-y="-8"
     inkscape:window-maximized="1"
     inkscape:current-layer="Layer_1"
     inkscape:pagecheckerboard="0" /><path
     id="path13"
     style="clip-rule:evenodd;fill:#000006;fill-rule:evenodd;fill-opacity:1"
     d="M 13.359375 0 C 11.250375 0 8.08525 1.2651875 5.90625 3.8671875 C 5.48425 4.3591875 5.13325 4.9216875 4.78125 5.5546875 C 4.42925 6.1166875 4.1485 6.8204375 3.9375 7.5234375 L 0.28125 19.685547 C 0.07025 20.388547 0 21.091234 0 21.865234 C 0 22.989234 0.21270312 24.183281 0.84570312 25.238281 C 1.4777031 26.222281 2.3901875 27.136594 3.8671875 27.558594 C 4.5001875 27.698594 5.2758281 27.839844 6.0488281 27.839844 L 60.880859 27.839844 C 62.989859 27.839844 66.222969 26.924344 68.542969 23.902344 C 69.035969 23.339344 69.458547 22.705594 69.810547 21.933594 C 70.230547 21.229594 70.510016 20.386656 70.791016 19.472656 L 74.166016 8.3652344 C 74.447016 7.4512344 74.589844 6.538625 74.589844 5.765625 C 74.589844 4.289625 74.097531 3.023375 73.394531 2.109375 C 72.691531 1.125375 71.706656 0.4919375 70.722656 0.2109375 C 70.230656 0.0699375 69.740359 0 69.318359 0 L 13.359375 0 z M 13.359375 1.265625 L 69.318359 1.265625 C 69.670359 1.265625 70.019094 1.335255 70.371094 1.40625 C 71.144094 1.68725 71.848156 2.1798125 72.410156 2.8828125 C 72.902156 3.5848125 73.255859 4.570625 73.255859 5.765625 C 73.255859 6.468625 73.183364 7.172625 72.902344 8.015625 L 69.599609 19.121094 C 69.318609 19.965094 69.037547 20.668094 68.685547 21.371094 C 68.333547 22.003094 67.982547 22.566906 67.560547 23.128906 C 65.521547 25.729906 62.708859 26.574219 60.880859 26.574219 L 6.0488281 26.574219 C 5.3458281 26.574219 4.7827031 26.504019 4.2207031 26.292969 C 3.1667031 26.011969 2.3923906 25.379156 1.9003906 24.535156 C 1.4783906 23.761156 1.2675781 22.776281 1.2675781 21.863281 C 1.2675781 21.229281 1.3378781 20.597469 1.5488281 20.105469 L 5.2050781 7.8730469 C 5.3460781 7.2410469 5.6272031 6.6791875 5.9082031 6.1171875 C 6.1892031 5.6241875 6.538625 5.132625 6.890625 4.640625 C 8.789625 2.391625 11.531375 1.265625 13.359375 1.265625 z M 70.441406 5.6933594 C 56.452406 6.7483594 46.048516 7.9442344 39.228516 9.4902344 L 45.767578 13.847656 C 53.781578 10.614656 62.076406 7.8723594 70.441406 5.6933594 z M 9.2109375 5.6953125 C 18.630938 8.0853125 26.857281 10.545234 34.238281 12.865234 L 41.759766 15.396484 C 46.400766 17.013484 50.61675 18.698719 54.34375 20.386719 L 45.205078 14.833984 L 29.527344 5.6953125 L 9.2109375 5.6953125 z M 27.982422 12.443359 C 20.599422 14.341359 15.045938 17.855391 11.460938 22.775391 L 21.443359 22.775391 C 23.974359 19.190391 28.192406 16.239547 33.816406 14.060547 L 27.982422 12.443359 z M 35.925781 14.833984 L 34.730469 15.396484 C 31.426469 16.943484 28.334172 19.262344 25.451172 22.777344 L 34.800781 22.777344 C 36.065781 20.879344 38.245953 18.698844 41.126953 16.589844 L 35.925781 14.833984 z " /></svg>
