<?xml version="1.0" encoding="UTF-8" standalone="no"?>
<!-- Created with Inkscape (http://www.inkscape.org/) -->

<svg
   xmlns:dc="http://purl.org/dc/elements/1.1/"
   xmlns:cc="http://creativecommons.org/ns#"
   xmlns:rdf="http://www.w3.org/1999/02/22-rdf-syntax-ns#"
   xmlns:svg="http://www.w3.org/2000/svg"
   xmlns="http://www.w3.org/2000/svg"
   xmlns:sodipodi="http://sodipodi.sourceforge.net/DTD/sodipodi-0.dtd"
   xmlns:inkscape="http://www.inkscape.org/namespaces/inkscape"
   xml:space="preserve"
   height="35.781"
   width="300"
   version="1.1"
   id="svg4409"
   inkscape:version="0.91 r13725"
   sodipodi:docname="logo_bauer.svg"><sodipodi:namedview
     pagecolor="#ffffff"
     bordercolor="#666666"
     borderopacity="1"
     objecttolerance="10"
     gridtolerance="10"
     guidetolerance="10"
     inkscape:pageopacity="0"
     inkscape:pageshadow="2"
     inkscape:window-width="1014"
     inkscape:window-height="658"
     id="namedview4500"
     showgrid="false"
     inkscape:zoom="0.96"
     inkscape:cx="185.78644"
     inkscape:cy="17.890499"
     inkscape:window-x="0"
     inkscape:window-y="0"
     inkscape:window-maximized="0"
     inkscape:current-layer="svg4409" /><metadata
     id="metadata4411"><rdf:RDF><cc:Work
         rdf:about=""><dc:format>image/svg+xml</dc:format><dc:type
           rdf:resource="http://purl.org/dc/dcmitype/StillImage" /><dc:title /></cc:Work></rdf:RDF></metadata><defs
     id="defs4413"><clipPath
       id="clipPath16"
       clipPathUnits="userSpaceOnUse"><path
         d="m36,737,163,0,0,19-163,0,0-19z"
         id="path4416" /></clipPath><clipPath
       id="clipPath160"
       clipPathUnits="userSpaceOnUse"><path
         d="m32.613,123.67,550.77,0,0,536.93-550.77,0,0-536.93z"
         id="path4419" /></clipPath><clipPath
       id="clipPath172"
       clipPathUnits="userSpaceOnUse"><path
         d="m77.475-12.934,37.249,0,0,10.991-37.249,0,0-10.991z"
         id="path4422" /></clipPath><clipPath
       id="clipPath182"
       clipPathUnits="userSpaceOnUse"><path
         d="m-32767,32767,65534,0,0-65534-65534,0,0,65534z"
         id="path4425" /></clipPath><clipPath
       id="clipPath190"
       clipPathUnits="userSpaceOnUse"><path
         d="m49.846,17.995,41.388,0,0,4.913-41.388,0,0-4.913z"
         id="path4428" /></clipPath></defs><g
     transform="matrix(1.25,0,0,-1.25,-45.000006,957.03107)"
     id="g4430"
     style="fill:#000000;fill-opacity:1"><g
       fill="#00a4e4"
       transform="matrix(1.5065696,0,0,1.5065696,-18.236501,-373.34176)"
       id="g4432"
       style="fill:#000000;fill-opacity:1"><g
         fill="#00a4e4"
         clip-path="url(#clipPath16)"
         id="g4434"
         style="fill:#000000;fill-opacity:1"><g
           transform="translate(134.5323,756)"
           id="g4436"
           style="fill:#000000;fill-opacity:1"><path
             fill-rule="nonzero"
             fill="#00a4e4"
             d="M0,0-7.843-16.359c-0.826-1.695-2.438-2.641-4.593-2.641h-19.037c-2.182,0-2.852,1.667-2.027,3.425l7.45,15.575h6.605l-6.87-14.316c-0.178-0.384-0.004-0.615,0.377-0.615h11.395c0.67,0,0.912,0.236,1.126,0.69l6.836,14.241h6.581z"
             id="path4438"
             style="fill:#000000;fill-opacity:1" /></g><g
           transform="translate(157.3477,751.4935)"
           id="g4440"
           style="fill:#000000;fill-opacity:1"><path
             fill-rule="nonzero"
             fill="#00a4e4"
             d="m0,0-1.177-2.44c-0.198-0.415-0.496-0.605-1.046-0.605h-12.358l1.456,3.02c0.208,0.44,0.504,0.643,1.076,0.643h11.634c0.455,0,0.546-0.358,0.415-0.618m3.943,4.507-18.285,0c-2.347,0-3.654-0.968-4.607-2.984l-5.929-12.329c-1.028-2.099-0.025-3.687,2.199-3.687h18.544c2.139,0,3.771,0.9,4.668,2.798l0.579,1.155-18.633-0.001c-0.393,0-0.537,0.261-0.362,0.631l1.082,2.263c0.257,0.542,0.603,0.691,1.089,0.691h15.287c2.406,0,3.79,1.108,4.445,2.489l2.385,4.961c0.347,0.762,0.47,1.309,0.47,1.843,0,1.398-1.164,2.17-2.932,2.17"
             id="path4442"
             style="fill:#000000;fill-opacity:1" /></g><g
           transform="translate(194.8333,751.9872)"
           id="g4444"
           style="fill:#000000;fill-opacity:1"><path
             fill-rule="nonzero"
             fill="#00a4e4"
             d="m0,0c0.346,0.762,0.469,1.309,0.469,1.843,0,1.398-1.164,2.17-2.931,2.17h-18.628c-2.345,0-3.653-0.968-4.606-2.984l-7.715-16.016h6.53l3.222,6.721c0.253,0.535,0.581,0.699,1.093,0.699h8.121c0.513,0,0.78-0.153,0.985-0.649l2.638-6.766h6.293l-3.004,7.534,0.468,0.034c2.485,0.177,4.091,1.228,4.949,3.012l2.116,4.402zm-6.509-0.494-1.224-2.537c-0.228-0.47-0.543-0.622-1.077-0.622h-12.625l1.5,3.109c0.229,0.484,0.54,0.669,1.139,0.669h11.873c0.455,0,0.546-0.358,0.414-0.619"
             id="path4446"
             style="fill:#000000;fill-opacity:1" /></g><g
           transform="translate(89.7719,741.5803)"
           id="g4448"
           style="fill:#000000;fill-opacity:1"><path
             fill-rule="nonzero"
             fill="#00a4e4"
             d="m0,0c-0.175-0.375-0.448-0.634-1.052-0.634h-12.018c-0.283,0-0.536,0.22-0.335,0.624l1.263,2.645c0.229,0.494,0.547,0.656,1.079,0.656h12.64l-1.577-3.291zm9.105,14.42-18.889,0c-2.066,0-3.5-0.852-4.356-2.721l-0.599-1.234,19.028,0.004c0.476,0,0.591-0.302,0.429-0.646l-0.992-2.066c-0.247-0.521-0.555-0.678-1.079-0.678h-16.236c-1.73,0-3.269-0.879-4.03-2.489l-2.679-5.569c-0.95-2.01-0.017-3.601,2.147-3.601h19.216c2.098,0,3.745,0.921,4.584,2.645l5.918,12.347c0.346,0.762,0.469,1.309,0.469,1.843,0,1.398-1.164,2.165-2.931,2.165"
             id="path4450"
             style="fill:#000000;fill-opacity:1" /></g><g
           transform="translate(63.647,751.559)"
           id="g4452"
           style="fill:#000000;fill-opacity:1"><path
             style="fill:#000000;fill-opacity:1"
             d="M 22.855469 0 C 19.588096 0 16.449155 1.4075084 14.869141 4.7558594 L 0 35.78125 L 45.068359 35.78125 C 49.497674 35.78125 52.175626 33.921342 53.644531 30.908203 L 56.708984 24.544922 C 57.221218 23.473374 57.591797 22.49022 57.591797 21.490234 C 57.591797 19.209665 55.914217 17.856408 53.603516 17.408203 C 53.603516 17.408203 55.000727 17.282132 56.177734 16.990234 C 59.074114 16.268964 60.9178 14.871427 62.228516 12.197266 L 64.466797 7.5566406 C 65.118388 6.1216331 65.349609 5.0896895 65.349609 4.0859375 C 65.349609 1.4532071 63.157784 5.9211895e-016 59.832031 0 L 22.855469 0 z M 27.496094 7.1386719 L 51.269531 7.1386719 C 52.205488 7.1386719 52.352585 7.7625366 52.064453 8.3632812 L 50.085938 12.494141 C 49.654682 13.354769 49.150787 13.695313 48.056641 13.695312 L 22.9375 13.695312 L 25.496094 8.3417969 C 25.885919 7.51695 26.511174 7.1386719 27.496094 7.1386719 z M 20.904297 20.929688 L 46.005859 20.929688 L 43.019531 27.162109 C 42.616524 28.018971 42.050692 28.349609 40.996094 28.349609 L 17.15625 28.349609 C 16.380367 28.349609 16.182082 27.769832 16.457031 27.199219 L 18.898438 22.140625 C 19.284496 21.338377 19.904311 20.929687 20.904297 20.929688 z "
             transform="matrix(0.53100766,0,0,-0.53100766,-27.647,4.4409989)"
             id="path4454" /></g></g></g></g></svg>