<?xml version="1.0" encoding="UTF-8" standalone="no"?>
<!-- Generator: Adobe Illustrator 12.0.0, SVG Export Plug-In . SVG Version: 6.00 Build 51448)  -->

<svg
   xmlns:dc="http://purl.org/dc/elements/1.1/"
   xmlns:cc="http://creativecommons.org/ns#"
   xmlns:rdf="http://www.w3.org/1999/02/22-rdf-syntax-ns#"
   xmlns:svg="http://www.w3.org/2000/svg"
   xmlns="http://www.w3.org/2000/svg"
   xmlns:sodipodi="http://sodipodi.sourceforge.net/DTD/sodipodi-0.dtd"
   xmlns:inkscape="http://www.inkscape.org/namespaces/inkscape"
   version="1.1"
   id="Layer_1"
   width="372.738"
   height="164.504"
   viewBox="0 0 372.738 164.504"
   overflow="visible"
   enable-background="new 0 0 372.738 164.504"
   xml:space="preserve"
   inkscape:version="0.91 r13725"
   sodipodi:docname="maxim.svg"><metadata
     id="metadata9"><rdf:RDF><cc:Work
         rdf:about=""><dc:format>image/svg+xml</dc:format><dc:type
           rdf:resource="http://purl.org/dc/dcmitype/StillImage" /><dc:title></dc:title></cc:Work></rdf:RDF></metadata><defs
     id="defs7" /><sodipodi:namedview
     pagecolor="#ffffff"
     bordercolor="#666666"
     borderopacity="1"
     objecttolerance="10"
     gridtolerance="10"
     guidetolerance="10"
     inkscape:pageopacity="0"
     inkscape:pageshadow="2"
     inkscape:window-width="1312"
     inkscape:window-height="745"
     id="namedview5"
     showgrid="false"
     inkscape:zoom="0.77266068"
     inkscape:cx="26.531698"
     inkscape:cy="82.251999"
     inkscape:window-x="0"
     inkscape:window-y="0"
     inkscape:window-maximized="0"
     inkscape:current-layer="Layer_1" /><path
     d="M28.838,164.504c37.814-20.035,79.274-33.077,122.979-37.618c9.894-10.878,21.68-21.442,34.55-31.419  c12.869,9.977,24.658,20.541,34.554,31.419c43.707,4.541,85.165,17.583,122.99,37.618c-6.986-15.475-59.629-55.497-124.231-92.196  c29.48-18.455,60.759-33.328,86.377-42.042c-26.213,16.926-44.453,50.139-44.453,58.909c21.379-14.729,62.689-28.199,89.475-28.199  c-6.259-21.929,7.983-52.019,21.659-59.529c-46.724-8.039-119.623,18.506-186.371,52.831C119.622,19.953,46.726-6.592,0,1.447  c13.684,7.51,27.931,37.6,21.654,59.529c26.792,0,68.108,13.47,89.482,28.199c0-8.77-18.239-41.982-44.453-58.909  c25.612,8.714,56.889,23.587,86.366,42.045C88.454,109.007,35.822,149.029,28.838,164.504"
     id="path3" /></svg>