<?xml version="1.0" encoding="UTF-8" standalone="no"?>
<!-- Creator: CorelDRAW X6 -->

<svg
   xml:space="preserve"
   width="7.8652935in"
   height="2.5558991in"
   version="1.1"
   style="clip-rule:evenodd;fill-rule:evenodd;image-rendering:optimizeQuality;shape-rendering:geometricPrecision;text-rendering:geometricPrecision"
   viewBox="0 0 7865.2935 2555.8991"
   id="svg2"
   inkscape:version="1.1.2 (0a00cf5339, 2022-02-04, custom)"
   sodipodi:docname="logo_asics.svg"
   xmlns:inkscape="http://www.inkscape.org/namespaces/inkscape"
   xmlns:sodipodi="http://sodipodi.sourceforge.net/DTD/sodipodi-0.dtd"
   xmlns="http://www.w3.org/2000/svg"
   xmlns:svg="http://www.w3.org/2000/svg"><path
     id="path908"
     style="fill:#000000;fill-opacity:1;stroke:none;stroke-width:1"
     d="m 1959.8978,0.06705736 c -79.5008,0.909393 -159.855,11.07356664 -232.605,26.44856864 -188,40.000003 -354.9925,110.993154 -508.9925,192.993174 -122,65 -263.98894,157.00129 -371.98895,243.00131 -15.64093,12.70826 -32.22877,28.04983 -47.9126,37.15006 l 20.89437,35.84798 c 34,-15 71.01807,-46.99315 106.01807,-67.99317 39,-24 72.99332,-45.01659 113.99331,-67.0166 221,-120.00001 567.003,-274.98796 828.003,-220.98796 242,49 269.9919,240.00553 199.9919,439.00554 -39,112.00002 -119.0056,253.98178 -189.0056,347.98179 l -75.9888,99.01935 c 3,-51 45.0056,-162.00796 -60.9944,-254.00796 -68,-59 -165.0182,-78.00423 -277.0182,-71.00423 -178.0001,12 -393.998,98.99397 -526.99797,172.99398 -120.00001,67 -214.98389,124.01401 -320.9839,206.01401 -285.00004,222 -603.007502,560.9985 -616.00750376,960.9985 C -6.696974,2311.5115 108.30221,2447.5121 270.30222,2514.5121 c 184.00001,76 418.00033,35.988 592.00034,-29.012 285.00004,-108.0002 438.00234,-238.9918 644.00234,-403.9918 l 183.0037,-168.0094 c 30,-31 57.0016,-57.9862 85.0016,-89.9862 l 60.9945,-68.0134 c 303,-336.0001 980.9929,-1271.00154 475.9929,-1664.001577 -71,-55.000003 -168.5017,-81.486329 -272.5017,-89.1113296 -26,-1.90625004 -52.3978,-2.62246704 -78.8981,-2.31933604 z M 798.39875,499.66017 l -0.10172,-0.16276 -0.99691,1.01725 c 0.35907,-0.20197 0.73859,-0.64558 1.09863,-0.85449 z m 2712.95165,88.58236 c -38.1686,-0.2829 -77.928,1.26139 -121.053,1.26139 H 3053.302 l -81.9906,312.01173 v 0.99691 c 143,2 286.9927,0 429.9927,0 67,0 132.9917,4.98649 153.9917,56.98649 19,44.99995 -6.9868,139.00685 -23.9868,182.00685 -239,16 -394.0059,-43.993 -656.0059,103.007 -144,81 -301.9967,221.9973 -329.9967,434.9976 -28,217 99.998,388.0068 322.998,432.0068 108,22 252.0044,12.9803 367.0044,12.9801 121,0 261.9846,7.0031 379.9846,-0.9969 52,-173 94.0084,-354.9917 142.0084,-528.9917 48,-175 99.0085,-353.0089 142.0085,-530.0089 55,-225.00008 -46.006,-378.99009 -202.006,-443.99012 -50.5,-21 -98.5045,-28.74997 -148.2545,-31.25 -12.4375,-0.625 -24.9764,-0.92295 -37.6994,-1.01725 z m 1065.9588,2.2583 c -236.0001,0 -445.0126,97.00863 -542.0126,313.00863 -47,104.99994 -66.9925,237.99724 -8.9925,342.99724 51,93 129.0021,149.9937 223.0021,205.9937 88,52 207.9988,104.0001 256.9988,171.0001 35,47 5.999,121.0072 -26.001,149.0072 -41.0001,36 -112.9989,39.0014 -177.9989,39.0014 -82.6187,0 -371.1562,-3.8981 -432.0068,0.9969 -10,16 -82.9875,291.0087 -82.9875,313.0087 141,-2 282.9909,0 423.9909,0 254,0 451.0016,-26.0165 585.0016,-271.0165 47,-86 92.0055,-234.9959 64.0055,-349.9959 -77,-320 -619.0035,-355.0028 -512.0035,-532.00276 29,-48 74.993,-68.99008 146.993,-68.99008 143,-1 287.013,1 430.013,0 11,-54 82.9998,-283.00863 78.9998,-313.00863 -141,2 -285.0019,0 -427.0019,0 z m 674.9878,0 -401.9979,1535.01387 h 337.9923 c 15,-35 82.0163,-314.0079 100.0163,-379.0079 35,-128.0001 66.9959,-254.9895 99.9959,-384.9895 23,-89 200.0043,-742.01647 196.0043,-771.01647 z m 1434.9976,0 c -314,-2 -523.9925,1.01025 -758.9925,148.01026 -172,108.00001 -320.9997,273.99691 -407.9997,500.99691 -43,112 -76.9963,246.0018 -66.9963,381.0018 18,258 175.986,438.9933 418.986,488.9933 126.7141,26.9393 299.1583,15.072 435.0179,16.0116 l 85.0017,-314.0056 c -177,-1 -386.0093,26.9971 -497.0093,-78.0029 -114,-107 -125.0069,-272.0055 -57.0069,-439.0055 55,-137 158.9962,-242.9866 270.9962,-306.98648 168,-95.00004 282.0154,-84.00166 495.0154,-85.00166 z m 564.0056,0.9969 c -144.0001,0 -241.9911,23.01889 -344.9911,86.01889 -192,115.00001 -310.9986,385.98388 -210.9985,570.98388 112,205 392.0008,256.0142 480.0008,377.0142 35,47 6.999,119.9899 -26.001,147.9899 -40,36 -111.9989,39.0014 -177.9989,39.0014 -142.1794,0 -284.3749,0.9716 -426.5543,0 -16.344,11.7025 -20.5415,50.3294 -26.4486,71.0043 -13,48 -61.0117,215.0013 -62.0117,243.0013 141,-2 283.0113,0 424.0113,0 247,0 456.9844,-28.0134 583.9844,-272.0134 122,-234 103,-440.9893 -125,-588.9893 -137.0001,-90 -393.9982,-172.9922 -322.9982,-291.99211 28,-48 75.0134,-69.01042 147.0134,-69.01042 143,-1 286.9927,0 429.9927,0 l 83.0078,-313.00864 z M 6544.7572,1812.506 c 0.257,-0.184 0.2861,-0.8265 0.5493,-0.9969 l -3.0111,0.9969 c 0.8206,0.01 1.6412,-0.01 2.4618,0 z M 1520.4243,904.1605 c 236.9318,4.28132 196.6911,241.53 58.8786,409.3425 -154,187 -508.0062,469.0123 -748.00619,496.0123 -164.00003,19 -264.00474,-96.0018 -209.00474,-256.0018 91.00001,-266 526.00513,-615.01021 847.00523,-648.01021 v 0.9969 c 18.3125,-1.875 35.3316,-2.6251 51.1271,-2.33969 z m 1715.861,545.6747 c 14.7615,-0.1545 29.9554,-0.1156 45.2679,0.041 61.25,0.625 124.2449,3.1246 167.7449,2.6246 l -94.9911,359.0087 c -74,1 -266.006,8.989 -327.006,-3.011 -184.0001,-36 -117.9948,-302.9959 97.0052,-349.9959 27.375,-6 67.6949,-8.2038 111.9791,-8.667 z m 4482.0152,372.6806 c -41,0 -75.0039,13.9891 -104.0039,42.9891 -29,29 -42.9891,63.0039 -42.9891,104.0039 0,41 13.9891,75.0039 42.9891,104.0039 29,29 63.0039,42.9892 104.0039,42.9892 41,0 75.0039,-13.9892 104.0039,-42.9892 29,-29 42.9891,-63.0039 42.9891,-104.0039 0,-41 -13.9891,-75.0039 -42.9891,-104.0039 -29,-29 -63.0039,-42.9891 -104.0039,-42.9891 z m 0,16.9881 c 36,0 67.0003,12.0046 92.0003,38.0046 25,25 38.0046,56.0003 38.0046,92.0003 0,36 -13.0046,66.0004 -38.0046,92.0004 -25,25 -56.0003,38.0045 -92.0003,38.0045 -36,0 -67.0003,-12.0045 -92.0003,-38.0045 -25,-25 -38.0046,-56.0004 -38.0046,-92.0004 0,-36 13.0046,-66.0003 38.0046,-92.0003 25,-25 56.0003,-38.0046 92.0003,-38.0046 z m -54.9927,46.0003 v 157.0027 h 19.9992 v -68.9901 h 13.0005 c 14,0 23.9886,1.9814 29.9886,5.9814 6,4 14.9979,17.0077 26.9979,37.0077 l 15.0146,26.001 h 24.9838 l -15.9913,-28.9917 c -3,-5 -7.0004,-11.0023 -13.0004,-19.0023 -5,-8 -9.0037,-13.0147 -12.0037,-15.0147 -2,-2 -7.0004,-4.9955 -13.0004,-7.9956 14,-2 25.0027,-6.0035 32.0027,-12.0036 10,-8 14.9944,-18.9823 14.9944,-31.9823 0,-12 -3.9974,-22.009 -13.9975,-30.009 -10,-8 -25.9939,-12.0035 -47.9939,-12.0035 z m 19.9992,17.0084 h 28.9917 c 24,0 38.0064,2.9956 44.0064,7.9956 6,6 8.9925,11.9992 8.9925,19.9992 0,5 -2.0049,9.9943 -5.0049,14.9943 -3,4 -8.0006,8.0129 -13.0006,9.0129 -7,2 -21.9859,2.9907 -43.9859,2.9907 h -19.9992 z" /><sodipodi:namedview
     pagecolor="#ffffff"
     bordercolor="#666666"
     borderopacity="1"
     objecttolerance="10"
     gridtolerance="10"
     guidetolerance="10"
     inkscape:pageopacity="0"
     inkscape:pageshadow="2"
     inkscape:window-width="1920"
     inkscape:window-height="1009"
     id="namedview25"
     showgrid="false"
     fit-margin-top="0"
     fit-margin-left="0"
     fit-margin-right="0"
     fit-margin-bottom="0"
     inkscape:zoom="0.95353536"
     inkscape:cx="332.44703"
     inkscape:cy="228.62288"
     inkscape:window-x="-8"
     inkscape:window-y="-8"
     inkscape:window-maximized="1"
     inkscape:current-layer="svg2"
     inkscape:pagecheckerboard="0"
     inkscape:document-units="in" /><defs
     id="defs4" /></svg>
