<?xml version="1.0" encoding="UTF-8" standalone="no"?>
<!-- Generator: Adobe Illustrator 16.0.0, SVG Export Plug-In . SVG Version: 6.00 Build 0) -->

<svg
   xmlns:dc="http://purl.org/dc/elements/1.1/"
   xmlns:cc="http://creativecommons.org/ns#"
   xmlns:rdf="http://www.w3.org/1999/02/22-rdf-syntax-ns#"
   xmlns:svg="http://www.w3.org/2000/svg"
   xmlns="http://www.w3.org/2000/svg"
   xmlns:sodipodi="http://sodipodi.sourceforge.net/DTD/sodipodi-0.dtd"
   xmlns:inkscape="http://www.inkscape.org/namespaces/inkscape"
   version="1.1"
   id="Layer_1"
   x="0px"
   y="0px"
   width="175.74796"
   height="27.839846"
   viewBox="0 0 175.74796 27.839846"
   xml:space="preserve"
   inkscape:version="0.91 r13725"
   sodipodi:docname="logo_rbk_2.svg"><metadata
     id="metadata21"><rdf:RDF><cc:Work
         rdf:about=""><dc:format>image/svg+xml</dc:format><dc:type
           rdf:resource="http://purl.org/dc/dcmitype/StillImage" /><dc:title /></cc:Work></rdf:RDF></metadata><defs
     id="defs19" /><sodipodi:namedview
     pagecolor="#ffffff"
     bordercolor="#666666"
     borderopacity="1"
     objecttolerance="10"
     gridtolerance="10"
     guidetolerance="10"
     inkscape:pageopacity="0"
     inkscape:pageshadow="2"
     inkscape:window-width="1111"
     inkscape:window-height="530"
     id="namedview17"
     showgrid="false"
     fit-margin-top="0"
     fit-margin-left="0"
     fit-margin-right="0"
     fit-margin-bottom="0"
     inkscape:zoom="2.4486917"
     inkscape:cx="27.63775"
     inkscape:cy="13.920832"
     inkscape:window-x="0"
     inkscape:window-y="0"
     inkscape:window-maximized="0"
     inkscape:current-layer="Layer_1" /><path
     style="clip-rule:evenodd;fill:#000000;fill-opacity:1;fill-rule:evenodd;stroke:none"
     d="m 114.51748,0 c -2.109,0 -5.27412,1.265188 -7.45312,3.867188 -0.422,0.492 -0.773,1.0545 -1.125,1.6875 -0.352,0.562 -0.63275,1.26575 -0.84375,1.96875 l -3.65625,12.162108 c -0.211,0.703 -0.28125,1.40569 -0.28125,2.17969 0,1.124 0.2127,2.31805 0.8457,3.37305 0.632,0.984 1.54449,1.89831 3.02149,2.32031 0.633,0.14 1.40864,0.28125 2.18164,0.28125 l 54.83203,0 c 2.109,0 5.34211,-0.9155 7.66211,-3.9375 0.493,-0.563 0.91558,-1.19675 1.26758,-1.96875 0.42,-0.704 0.69946,-1.54694 0.98046,-2.46094 l 3.375,-11.107421 c 0.281,-0.914 0.42383,-1.82661 0.42383,-2.59961 0,-1.476 -0.49231,-2.74225 -1.19531,-3.65625 -0.703,-0.984 -1.68787,-1.617437 -2.67187,-1.898437 C 171.38877,0.069938 170.89847,0 170.47647,0 l -55.95899,0 z m 0,1.265625 55.95899,0 c 0.352,0 0.70073,0.06963 1.05273,0.140625 0.773,0.281 1.47707,0.773563 2.03907,1.476563 0.492,0.702 0.8457,1.687812 0.8457,2.882812 0,0.703 -0.0725,1.407 -0.35352,2.25 l -3.30273,11.105471 c -0.281,0.844 -0.56206,1.547 -0.91406,2.25 -0.352,0.632 -0.703,1.19581 -1.125,1.75781 -2.039,2.601 -4.85169,3.44531 -6.67969,3.44531 l -54.83203,0 c -0.703,0 -1.26613,-0.0702 -1.82813,-0.28125 -1.054,-0.281 -1.82831,-0.91381 -2.32031,-1.75781 -0.422,-0.774 -0.63281,-1.75887 -0.63281,-2.67187 0,-0.634 0.0703,-1.26582 0.28125,-1.75782 l 3.65625,-12.232419 c 0.141,-0.632 0.42212,-1.193859 0.70312,-1.755859 0.281,-0.493 0.63042,-0.984563 0.98242,-1.476563 1.899,-2.249 4.64075,-3.375 6.46875,-3.375 z"
     id="path7"
     inkscape:connector-curvature="0" /><path
     inkscape:connector-curvature="0"
     id="path9"
     d="m 170.758,19.121016 0,0 0,0 z"
     style="clip-rule:evenodd;fill:#000000;fill-rule:evenodd;fill-opacity:1;stroke:none" /><path
     inkscape:connector-curvature="0"
     id="path13"
     d="m 134.975,14.060016 -5.834,-1.617 c -7.383,1.898 -12.936,5.413 -16.521,10.333 l 9.982,0 c 2.531,-3.585 6.749,-6.537 12.373,-8.716 l 0,0 z m 2.109,0.773 5.201,1.757 c -2.881,2.109 -5.061,4.289 -6.326,6.187 l -9.35,0 c 2.883,-3.515 5.975,-5.834 9.279,-7.381 l 1.196,-0.563 0,0 z m 3.303,-5.343 6.539,4.358 c 8.014,-3.233 16.309,-5.975 24.674,-8.154 -13.989,1.055 -24.393,2.25 -31.213,3.796 l 0,0 z m 5.976,5.343 9.139,5.554 c -3.727,-1.688 -7.943,-3.374 -12.584,-4.991 l -7.521,-2.53 c -7.381,-2.32 -15.607,-4.781 -25.027,-7.171 l 20.316,0 15.677,9.138 0,0 z"
     style="clip-rule:evenodd;fill:#000000;fill-opacity:1;fill-rule:evenodd;stroke:none" /><path
     inkscape:connector-curvature="0"
     id="path15"
     d="m 39.156,1.195016 c 3.164,0 5.273,2.319 4.218,6.327 -1.336,4.921 -2.601,9.772 -3.937,14.622 6.89,0 13.779,0 20.668,0 0.914,-3.304 1.828,-6.678 2.671,-9.912 -6.819,0 -13.568,0 -20.387,0 0.633,-2.531 3.375,-4.71 6.117,-4.71 7.03,0 14.06,0 21.089,0 -1.336,4.921 -2.601,9.772 -3.937,14.622 -0.633,2.531 -3.515,5.133 -6.889,5.133 -8.858,0 -17.716,0 -26.574,0 2.322,-8.718 4.642,-17.365 6.961,-26.082 l 0,0 z m 35.08,-0.843 -7.241,26.925 15.677,-10.616 7.451,8.085 c 1.898,1.969 3.445,2.531 9.771,2.531 l -12.583,-13.639 16.591,-11.317 c -6.818,0 -9.701,0.281 -13.498,2.812 l -14.411,9.771 2.109,-7.732 c 0.844,-3.235 -1.546,-4.852 -3.866,-6.82 l 0,0 z M 7.03,1.195016 0,27.276016 c 3.515,0 6.608,-2.461 7.522,-6.047 0.773,-2.882 1.547,-5.764 2.32,-8.575 1.898,1.827 4.499,5.131 6.678,7.732 3.093,3.515 4.569,6.89 14.271,6.89 -5.834,-4.43 -8.717,-10.687 -13.638,-13.357 -1.687,-0.843 -3.937,-1.335 -7.311,-1.335 0.562,-2.039 1.125,-4.078 1.687,-6.117 l 18.137,0 -1.546,5.765 5.554,0 1.547,-5.765 c 0.773,-2.953 -0.915,-5.272 -4.148,-5.272 -8.015,0 -16.03,0 -24.043,0 l 0,0 z"
     style="clip-rule:evenodd;fill:#000000;fill-opacity:1;fill-rule:evenodd;stroke:none" /></svg>