<?xml version="1.0" encoding="UTF-8" standalone="no"?>
<!-- Generator: Adobe Illustrator 12.0.1, SVG Export Plug-In . SVG Version: 6.00 Build 51448)  -->

<svg
   xmlns:dc="http://purl.org/dc/elements/1.1/"
   xmlns:cc="http://creativecommons.org/ns#"
   xmlns:rdf="http://www.w3.org/1999/02/22-rdf-syntax-ns#"
   xmlns:svg="http://www.w3.org/2000/svg"
   xmlns="http://www.w3.org/2000/svg"
   xmlns:sodipodi="http://sodipodi.sourceforge.net/DTD/sodipodi-0.dtd"
   xmlns:inkscape="http://www.inkscape.org/namespaces/inkscape"
   version="1.0"
   id="Layer_1"
   width="783.96191"
   height="130.39"
   viewBox="0 0 783.9619 130.39"
   overflow="visible"
   enable-background="new 0 0 561.76 373.939"
   xml:space="preserve"
   inkscape:version="0.91 r13725"
   sodipodi:docname="logo_adidas_2.svg"
   style="overflow:visible"><metadata
     id="metadata38"><rdf:RDF><cc:Work
         rdf:about=""><dc:format>image/svg+xml</dc:format><dc:type
           rdf:resource="http://purl.org/dc/dcmitype/StillImage" /><dc:title></dc:title></cc:Work></rdf:RDF></metadata><defs
     id="defs36" /><sodipodi:namedview
     pagecolor="#ffffff"
     bordercolor="#666666"
     borderopacity="1"
     objecttolerance="10"
     gridtolerance="10"
     guidetolerance="10"
     inkscape:pageopacity="0"
     inkscape:pageshadow="2"
     inkscape:window-width="1086"
     inkscape:window-height="666"
     id="namedview34"
     showgrid="false"
     inkscape:zoom="0.5180148"
     inkscape:cx="264.92176"
     inkscape:cy="186.7205"
     inkscape:window-x="0"
     inkscape:window-y="0"
     inkscape:window-maximized="0"
     inkscape:current-layer="Layer_1"
     fit-margin-top="0"
     fit-margin-left="0"
     fit-margin-right="0"
     fit-margin-bottom="0" /><g
     id="g3389"
     transform="matrix(0.53647398,0,0,0.53647398,-31.303257,-0.13411849)"><polygon
       points="305.37,132.92 255.21,49.4 305.37,19.25 336.95,0.25 413.63,127.77 482.97,243.3 413.63,243.3 371.58,243.3 "
       id="polygon14"
       style="fill:#000000;fill-opacity:1;stroke:none" /><polygon
       points="159.44,140.44 156.74,135.96 159.44,134.36 238.57,86.72 305.37,197.859 332.56,243.3 305.37,243.3 221.25,243.3 "
       id="polygon20"
       style="fill:#000000;fill-opacity:1;stroke:none" /><polygon
       points="58.35,222.439 140.18,173.29 159.44,205.29 182.24,243.3 159.44,243.3 70.85,243.3 "
       id="polygon28"
       style="fill:#000000;fill-opacity:1;stroke:none" /></g><g
     id="g3394"
     transform="translate(222.45193,-243.3)"><path
       d="m 558.72,303.68 -16.13,0 -8.359,0 c -0.761,-4.06 -1.94,-6.92 -3.551,-8.53 -2.62,-2.619 -7.09,-3.97 -13.26,-3.97 -6.08,0 -10.3,1.01 -12.66,3.04 -1.779,1.521 -2.71,3.63 -2.71,6.25 0,3.71 5.16,6.67 15.37,8.95 11.66,2.53 20.021,4.729 25.17,6.5 1.351,0.51 2.53,0.93 3.38,1.35 10.391,4.9 15.54,12.34 15.54,22.301 0,12.159 -5.069,21.029 -15.12,26.6 -1.27,0.68 -2.449,1.27 -3.8,1.86 -6.5,2.79 -14.1,4.22 -22.63,4.22 -12.75,0 -23.06,-2.28 -30.91,-6.76 -4.939,-2.87 -8.63,-6.48 -11.09,-10.83 -2.46,-4.351 -3.69,-9.431 -3.69,-15.261 l 25.671,0 c 0,4.391 1.609,7.86 4.729,10.221 3.13,2.45 8.45,3.72 15.96,3.72 5.66,0 9.88,-1.19 12.67,-3.55 2.2,-1.86 3.21,-3.891 3.21,-6.25 0,-3.97 -5.06,-7.09 -15.12,-9.29 -15.029,-3.21 -24.489,-5.83 -28.37,-7.69 -10.3,-4.81 -15.369,-12.239 -15.369,-22.55 0,-8.27 2.619,-15.28 8.02,-21.02 6.76,-7.181 16.89,-10.73 30.32,-10.73 11.06,0 19.93,1.61 26.6,4.73 0.59,0.25 1.101,0.51 1.61,0.85 4.81,2.61 8.439,6.08 10.87,10.39 2.429,4.299 3.649,9.458 3.649,15.449 z"
       id="path8"
       style="fill:#000000;fill-opacity:1;stroke:none"
       inkscape:connector-curvature="0" /><path
       d="m 463.97,323.52 0,47.38 -23.06,0 0,-5.239 c -7.771,5.069 -17.061,8.029 -27.021,8.029 -0.09,0 -0.17,0 -0.26,0 -27.53,-0.17 -49.91,-22.64 -49.91,-50.17 0,-27.529 22.38,-49.989 49.91,-50.16 0.09,0 0.17,0 0.26,0 9.96,0 19.25,2.961 27.021,8.021 l 0,-5.49 23.06,0 0,47.629 z m -23.06,5.24 0,-10.47 c -2.45,-12.67 -13.68,-22.3 -27.021,-22.3 -0.09,0 -0.17,0 -0.26,0 -15.11,0.09 -27.36,12.42 -27.36,27.529 0,15.12 12.25,27.45 27.36,27.62 0.09,0 0.17,0 0.26,0 13.341,10e-4 24.571,-9.709 27.021,-22.379 z"
       id="path16"
       style="fill:#000000;fill-opacity:1;stroke:none"
       inkscape:connector-curvature="0" /><path
       d="m 355.7,323.52 0,47.38 -23.05,0 0,-5.239 c -7.86,5.069 -17.061,8.029 -27.03,8.029 -0.08,0 -0.17,0 -0.25,0 -27.53,-0.17 -49.91,-22.64 -49.91,-50.17 0,-27.529 22.38,-49.989 49.91,-50.16 0.08,0 0.17,0 0.25,0 9.97,0 19.17,2.961 27.03,8.021 l 0,-38.081 23.05,0 0,80.22 z m -23.05,5.24 0,-10.47 c -2.45,-12.67 -13.69,-22.3 -27.03,-22.3 -0.08,0 -0.17,0 -0.25,0 -15.12,0.09 -27.36,12.42 -27.36,27.529 0,15.12 12.24,27.45 27.36,27.62 0.08,0 0.17,0 0.25,0 13.34,10e-4 24.58,-9.709 27.03,-22.379 z"
       id="path18"
       style="fill:#000000;fill-opacity:1;stroke:none"
       inkscape:connector-curvature="0" /><rect
       x="221.34"
       y="273.35901"
       width="25.08"
       height="97.540001"
       id="rect22"
       style="fill:#000000;fill-opacity:1;stroke:none" /><rect
       x="221.34"
       y="243.8"
       width="25.08"
       height="22.040001"
       id="rect24"
       style="fill:#000000;fill-opacity:1;stroke:none" /><path
       d="m 209.85,323.52 0,47.38 -23.05,0 0,-5.239 c -7.85,5.069 -17.14,8.029 -27.11,8.029 -0.08,0 -0.17,0 -0.25,0 -27.53,-0.17 -49.91,-22.64 -49.91,-50.17 0,-27.529 22.38,-49.989 49.91,-50.16 0.08,0 0.17,0 0.25,0 9.97,0 19.26,2.961 27.11,8.021 l 0,-38.081 23.05,0 0,80.22 z m -23.05,5.24 0,-10.47 c -2.45,-12.67 -13.68,-22.3 -27.11,-22.3 -0.08,0 -0.17,0 -0.25,0 -15.12,0.09 -27.36,12.42 -27.36,27.529 0,15.12 12.24,27.45 27.36,27.62 0.08,0 0.17,0 0.25,0 13.43,10e-4 24.66,-9.709 27.11,-22.379 z"
       id="path26"
       style="fill:#000000;fill-opacity:1;stroke:none"
       inkscape:connector-curvature="0" /><path
       d="m 100.49,323.52 0,47.38 -23.05,0 0,-5.239 c -7.86,5.069 -17.15,8.029 -27.11,8.029 -0.09,0 -0.17,0 -0.26,0 -27.44,-0.17 -49.82,-22.64 -49.82,-50.17 0,-27.529 22.38,-49.989 49.82,-50.16 0.09,0 0.17,0 0.26,0 9.96,0 19.25,2.961 27.11,8.021 l 0,-5.49 23.05,0 0,47.629 z m -23.05,5.24 0,-10.47 c -2.45,-12.67 -13.68,-22.3 -27.11,-22.3 -0.09,0 -0.17,0 -0.26,0 -15.03,0.09 -27.27,12.42 -27.27,27.529 0,15.12 12.24,27.45 27.27,27.62 0.09,0 0.17,0 0.26,0 13.43,10e-4 24.66,-9.709 27.11,-22.379 z"
       id="path30"
       style="fill:#000000;fill-opacity:1;stroke:none"
       inkscape:connector-curvature="0" /></g><g
     id="g32"
     style="fill:#000000;fill-opacity:1;stroke:none"
     transform="translate(222.45193,-243.3)" /></svg>