<?xml version="1.0" encoding="UTF-8" standalone="no"?>
<!-- Creator: CorelDRAW X6 -->

<svg
   xmlns:dc="http://purl.org/dc/elements/1.1/"
   xmlns:cc="http://creativecommons.org/ns#"
   xmlns:rdf="http://www.w3.org/1999/02/22-rdf-syntax-ns#"
   xmlns:svg="http://www.w3.org/2000/svg"
   xmlns="http://www.w3.org/2000/svg"
   xmlns:sodipodi="http://sodipodi.sourceforge.net/DTD/sodipodi-0.dtd"
   xmlns:inkscape="http://www.inkscape.org/namespaces/inkscape"
   xml:space="preserve"
   width="7.4410009in"
   height="4.2151408in"
   version="1.1"
   style="clip-rule:evenodd;fill-rule:evenodd;image-rendering:optimizeQuality;shape-rendering:geometricPrecision;text-rendering:geometricPrecision"
   viewBox="0 0 7441.0009 4215.1408"
   id="svg2"
   inkscape:version="0.91 r13725"
   sodipodi:docname="logo_mizuno.svg"><metadata
     id="metadata30"><rdf:RDF><cc:Work
         rdf:about=""><dc:format>image/svg+xml</dc:format><dc:type
           rdf:resource="http://purl.org/dc/dcmitype/StillImage" /><dc:title></dc:title></cc:Work></rdf:RDF></metadata><sodipodi:namedview
     pagecolor="#ffffff"
     bordercolor="#666666"
     borderopacity="1"
     objecttolerance="10"
     gridtolerance="10"
     guidetolerance="10"
     inkscape:pageopacity="0"
     inkscape:pageshadow="2"
     inkscape:window-width="1277"
     inkscape:window-height="756"
     id="namedview28"
     showgrid="false"
     fit-margin-top="0"
     fit-margin-left="0"
     fit-margin-right="0"
     fit-margin-bottom="0"
     inkscape:zoom="0.95353535"
     inkscape:cx="124.1386"
     inkscape:cy="62.624602"
     inkscape:window-x="0"
     inkscape:window-y="0"
     inkscape:window-maximized="0"
     inkscape:current-layer="svg2" /><defs
     id="defs4"><style
       type="text/css"
       id="style6"><![CDATA[
    .fil0 {fill:#161616}
    .fil1 {fill:white}
   ]]></style></defs><g
     id="Layer_x0020_1"
     style="fill:#000000;fill-opacity:1"
     transform="translate(-545.99978,-3378.9925)"><metadata
       id="CorelCorpID_0Corel-Layer" /><path
       d="m 718.83008,304.10938 c -6.93,2.7 -14.66945,7.2914 -21.68946,10.4414 -7.47,3.42 -14.67031,6.83992 -22.32031,10.16992 -32.31,14.04 -60.66015,24.56899 -94.41015,35.45899 -16.56,5.31 -33.02953,10.17093 -49.76954,15.21093 -67.23,20.25001 -142.74116,41.94024 -218.70117,41.49024 l 0,0.0898 c -24.57,-0.18 -52.83039,-6.38976 -36.90039,-35.00976 7.11,-12.78 21.87188,-28.26063 32.67188,-37.89063 1.62,-1.44 4.31906,-2.70101 5.03906,-5.04101 -2.52,0.36 -11.96914,4.32023 -15.11914,5.49023 -4.95,1.89 -10.26031,3.77992 -15.57031,5.66992 -10.44,3.87 -20.79016,7.47032 -31.41016,11.07032 -57.96,19.62 -106.37961,33.48007 -165.599609,48.33007 -6.03,1.53 -31.680234,6.75078 -34.740234,8.55078 17.280001,1.26001 33.83914,1.62008 51.119143,3.33008 44.37,4.5 93.69117,14.13016 133.20117,31.41016 13.41,5.85 24.38914,11.96844 35.36914,18.89844 5.4,3.42 26.37078,18.54156 31.05078,23.85156 11.34,12.69 13.58953,11.8789 25.01953,29.87891 9.72,15.21 10.53031,20.88109 15.57031,35.37109 0.63001,1.71 0.17907,2.42969 2.78907,2.42969 28.71,0 61.29093,0.45015 89.46093,-0.0899 -3.51,-17.82 -7.29101,-22.77117 -7.29101,-45.45117 0,-35.01 16.83008,-63.71883 46.08008,-80.54883 24.84,-14.31 60.66015,-27.00086 89.91015,-36.63086 7.92,-2.61 108.72,-35.54929 112.5,-37.52929 1.8,-0.99 8.72977,-11.07047 10.25977,-13.23047 l 20.16016,-27.44922 c 2.25,-3.06 4.32015,-5.76 6.66015,-9 1.62,-2.25 5.67016,-7.11148 6.66016,-9.27148 z M 412.38086,444.86914 c -1.71,0.63 -11.25156,9.81164 -12.60156,11.43164 -11.25,13.5 -22.49953,28.98008 -25.01953,48.33008 -0.45,-0.36 -0.54024,-0.36039 -0.99024,-0.90039 l -17.36914,-20.16016 c -2.34,-2.16 -3.87062,-4.32047 -6.39062,-6.48047 -4.05,-3.33 -24.65985,-21.24078 -29.33985,-22.05078 l -0.0898,-0.0898 c 6.48,-0.81 18.0907,6.2e-4 25.4707,-0.35938 7.92,-0.36 15.84008,-1.17015 23.58008,-2.16015 l 42.75,-7.56055 z"
       transform="scale(11.111111,11.111111)"
       id="path10"
       style="fill:#000000;fill-opacity:1"
       inkscape:connector-curvature="0" /><path
       class="fil0"
       d="m 549,7589 c 104,7 229,1 335,1 56,0 112,0 168,0 57,1 41,7 100,-68 143,-179 309,-369 457,-551 51,-62 101,-123 152,-184 54,-63 91,-124 174,-161 69,-31 231,-34 314,-24 l -762,921 c -17,21 -40,43 -53,66 l 551,0 725,-878 c 39,-43 85,-85 164,-103 43,-10 212,-14 257,-6 l -200,243 c -186,218 -375,462 -560,678 -17,20 -39,45 -52,65 167,11 370,1 541,1 165,0 290,-70 294,-249 9,-356 0,-725 0,-1083 -165,0 -439,-21 -577,34 -38,15 -68,33 -96,54 -72,53 -129,130 -185,201 l -41,44 0,-330 c -109,-10 -264,-1 -378,-2 -115,0 -219,35 -289,91 -85,67 -360,410 -437,508 -29,37 -59,68 -88,105 l -172,207 c -57,70 -113,139 -172,208 -30,34 -57,71 -87,106 l -86,105 z"
       id="path12"
       style="fill:#000000;fill-opacity:1"
       inkscape:connector-curvature="0" /><path
       class="fil0"
       d="m 4844,7391 c 0,111 86,199 196,199 l 691,0 c 98,0 190,-88 190,-187 l 0,-605 208,0 c 70,0 110,39 110,107 l 0,684 380,-1 c 0,-197 0,-393 0,-590 0,-78 12,-217 -16,-281 -27,-62 -90,-119 -182,-119 l -881,0 0,686 c 0,123 -114,107 -202,107 -152,0 -115,-158 -115,-337 0,-152 0,-304 0,-456 l -380,0 0,792 z"
       id="path14"
       style="fill:#000000;fill-opacity:1"
       inkscape:connector-curvature="0" /><path
       d="m 636.31836,593.74805 c -6.99363,0.0475 -12.93352,0.27531 -15.22852,0.88281 l 0,-0.0918 c -15.48,4.23 -13.85937,16.11094 -13.85937,33.21094 0,9.54 -1.44102,38.51984 1.70898,45.08984 6.3,13.32 20.07071,10.34961 36.72071,10.34961 7.2,0 43.28984,0.54063 47.33984,-0.35937 16.65,-3.6 13.85938,-21.51094 13.85938,-33.21094 0,-9.63 1.35101,-38.87922 -1.70899,-45.44922 -5.94,-12.87 -20.97008,-10.08008 -37.08008,-10.08008 -5.5125,0 -20.0959,-0.42089 -31.75195,-0.34179 z m 21.13086,17.80273 c 4.23,0 8.46039,0.31328 9.90039,0.98828 1.89,0.9 4.32133,3.42172 4.86133,5.76172 0.81,3.06 0.35937,26.90867 0.35937,31.13867 0,7.47 0.36008,12.8711 -5.66992,15.1211 -2.97,1.08 -17.19031,1.17015 -20.07031,-0.0899 -1.98,-0.81 -4.31922,-3.41992 -4.94922,-5.66992 -0.81,-2.88 -0.36133,-27.00062 -0.36133,-31.14062 0,-8.19 -0.80891,-12.4211 6.12109,-15.1211 l -0.0898,-0.0898 c 1.44,-0.585 5.66844,-0.89844 9.89844,-0.89844 z"
       transform="scale(11.111111,11.111111)"
       id="path16"
       style="fill:#000000;fill-opacity:1"
       inkscape:connector-curvature="0" /><path
       class="fil0"
       d="m 3805,6797 495,2 c -4,9 -63,76 -72,85 l -377,419 c -48,77 -34,181 -34,284 45,7 824,6 910,2 l 0,-195 -493,-1 333,-375 c 166,-178 147,-141 148,-417 -73,-8 -868,-9 -910,2 l 0,194 z"
       id="path18"
       style="fill:#000000;fill-opacity:1"
       inkscape:connector-curvature="0" /><path
       class="fil0"
       d="m 3309,6744 0,846 c 160,0 297,28 364,-117 28,-60 16,-205 16,-281 0,-197 0,-394 0,-591 l -380,-2 0,145 z"
       id="path20"
       style="fill:#000000;fill-opacity:1"
       inkscape:connector-curvature="0" /><path
       class="fil0"
       d="m 5205,6113 c 0,43 -15,80 -46,110 -30,30 -67,46 -110,46 -43,0 -80,-15 -110,-46 -30,-30 -46,-67 -46,-110 0,-43 15,-80 46,-110 30,-30 67,-46 110,-46 43,0 80,15 110,46 30,30 46,67 46,110 z m -18,0 c 0,-38 -13,-71 -40,-98 -27,-27 -60,-40 -98,-40 -38,0 -71,13 -98,40 -27,27 -40,59 -40,98 0,38 13,71 40,98 27,27 60,40 98,40 38,0 71,-13 98,-40 27,-27 40,-59 40,-98 z m -196,-89 65,0 c 24,0 40,4 51,13 10,9 15,19 15,32 0,14 -5,25 -16,34 -8,7 -19,11 -34,13 7,3 11,6 14,8 3,2 7,8 13,16 6,8 10,15 13,20 l 17,31 -27,0 -16,-28 c -12,-22 -22,-34 -28,-39 -7,-4 -17,-6 -32,-6 l -14,0 0,73 -21,0 0,-167 z m 21,18 0,58 21,0 c 24,0 39,-1 47,-4 6,-2 10,-5 14,-10 4,-5 5,-10 5,-16 0,-8 -3,-15 -9,-21 -6,-6 -21,-9 -46,-9 l -32,0 z"
       id="path26"
       style="fill:#000000;fill-opacity:1"
       inkscape:connector-curvature="0" /></g></svg>