<?xml version="1.0" encoding="UTF-8" standalone="no"?>
<!-- Generator: Adobe Illustrator 14.0.0, SVG Export Plug-In . SVG Version: 6.00 Build 43363)  -->

<svg
   xmlns:dc="http://purl.org/dc/elements/1.1/"
   xmlns:cc="http://creativecommons.org/ns#"
   xmlns:rdf="http://www.w3.org/1999/02/22-rdf-syntax-ns#"
   xmlns:svg="http://www.w3.org/2000/svg"
   xmlns="http://www.w3.org/2000/svg"
   xmlns:sodipodi="http://sodipodi.sourceforge.net/DTD/sodipodi-0.dtd"
   xmlns:inkscape="http://www.inkscape.org/namespaces/inkscape"
   version="1.1"
   id="Layer_1"
   x="0px"
   y="0px"
   width="202.02734"
   height="35.220703"
   viewBox="0 0 202.02734 35.220703"
   enable-background="new 0 0 250 69"
   xml:space="preserve"
   inkscape:version="0.91 r13725"
   sodipodi:docname="KOHO_logo.svg"><metadata
     id="metadata25"><rdf:RDF><cc:Work
         rdf:about=""><dc:format>image/svg+xml</dc:format><dc:type
           rdf:resource="http://purl.org/dc/dcmitype/StillImage" /><dc:title></dc:title></cc:Work></rdf:RDF></metadata><defs
     id="defs23" /><sodipodi:namedview
     pagecolor="#ffffff"
     bordercolor="#666666"
     borderopacity="1"
     objecttolerance="10"
     gridtolerance="10"
     guidetolerance="10"
     inkscape:pageopacity="0"
     inkscape:pageshadow="2"
     inkscape:window-width="998"
     inkscape:window-height="651"
     id="namedview21"
     showgrid="false"
     fit-margin-top="0"
     fit-margin-left="0"
     fit-margin-right="0"
     fit-margin-bottom="0"
     inkscape:zoom="1.7253405"
     inkscape:cx="113.95272"
     inkscape:cy="19.115665"
     inkscape:window-x="616"
     inkscape:window-y="53"
     inkscape:window-maximized="0"
     inkscape:current-layer="Layer_1" /><path
     style="color:#000000;font-style:normal;font-variant:normal;font-weight:normal;font-stretch:normal;font-size:medium;line-height:normal;font-family:sans-serif;text-indent:0;text-align:start;text-decoration:none;text-decoration-line:none;text-decoration-style:solid;text-decoration-color:#000000;letter-spacing:normal;word-spacing:normal;text-transform:none;direction:ltr;block-progression:tb;writing-mode:lr-tb;baseline-shift:baseline;text-anchor:start;white-space:normal;clip-rule:nonzero;display:inline;overflow:visible;visibility:visible;opacity:1;isolation:auto;mix-blend-mode:normal;color-interpolation:sRGB;color-interpolation-filters:linearRGB;solid-color:#000000;solid-opacity:1;fill:#000000;fill-opacity:1;fill-rule:nonzero;stroke:none;stroke-width:1.07299995;stroke-linecap:butt;stroke-linejoin:miter;stroke-miterlimit:4;stroke-dasharray:none;stroke-dashoffset:0;stroke-opacity:1;color-rendering:auto;image-rendering:auto;shape-rendering:auto;text-rendering:auto;enable-background:accumulate"
     d="m 184.41211,0 -3.0625,3.076172 c -5.74895,1.208904 -10.26957,5.73561 -11.46875,11.488281 l -3.07227,3.052735 3.08008,3.060546 c 1.20909,5.748227 5.73255,10.265484 11.48242,11.466797 l 3.0586,3.076172 2.93554,-3.046875 c 5.75019,-1.208747 10.3865,-5.764915 11.58789,-11.519531 l 3.07422,-3.050781 -3.07812,-3.0625 C 197.74274,8.792634 193.21513,4.272099 187.46289,3.072266 L 184.41211,0 Z m -0.002,0.882813 0.002,0 2.73242,2.751953 0.0937,0.01953 c 5.59162,1.123773 9.99835,5.523809 11.12891,11.111328 l 0.0195,0.0918 0.0664,0.06836 2.69141,2.675782 -2.75195,2.734375 -0.0195,0.0918 c -1.1224,5.58644 -5.64793,10.034378 -11.23632,11.166016 l -0.0957,0.01758 -2.61914,2.720703 -2.73047,-2.75 -0.0937,-0.01758 c -5.59054,-1.12492 -9.99604,-5.524467 -11.1289,-11.113281 l -0.0195,-0.09375 -2.75782,-2.740234 2.75391,-2.736328 0.0176,-0.0918 c 1.12376,-5.591027 5.52563,-9.998006 11.11328,-11.13086 l 0.0918,-0.01953 2.74218,-2.755859 z m -1.05468,3.912109 c -6.26032,0.50811 -11.25166,5.500028 -11.75977,11.759766 l 2.98438,1.05664 -2.98243,1.056641 c 0.50985,6.251617 5.49095,11.236882 11.74024,11.751953 l 1.09765,-2.980469 1.09375,2.978516 c 6.21739,-0.536532 11.16822,-5.498455 11.69141,-11.71875 l -2.96875,-1.083985 2.9707,-1.08789 C 196.70406,10.307049 191.75546,5.343114 185.54097,4.800781 l -1.08984,2.984375 -1.0957,-2.990234 z m 1.05273,2.992188 c 5.42506,0 9.82422,4.396618 9.82422,9.822265 0,5.425067 -4.39916,9.822266 -9.82422,9.822266 -5.42391,0 -9.82031,-4.397199 -9.82031,-9.822266 0,-5.425647 4.3964,-9.822265 9.82031,-9.822265 z M 51.398392,9.671875 c -4.64099,-0.006 -10.00564,3.30686 -9.93164,8.005859 -0.088,4.619 5.18808,7.707797 9.83008,7.716797 l 8.26367,0.01172 9.65821,0.01172 c 4.563,0.007 10.00668,-3.060594 9.92968,-7.683594 0.091,-4.699 -5.34225,-8.029062 -9.90624,-8.039062 l -17.84376,-0.02344 z m 101.917968,0.123047 -17.54882,0.0039 c -4.562,-0.01 -9.92852,3.30586 -9.85352,8.00586 -0.085,4.62 5.18903,7.706843 9.83203,7.714843 l 17.75781,0.02539 c 4.722,0.005 10.08663,-3.064594 10.01563,-7.683594 0.088,-4.7 -5.48013,-8.061406 -10.20313,-8.066406 z m -46.34765,0.478516 -0.002,2.683593 3.29297,0.0039 -0.002,3.25 -15.093748,-0.01953 -0.0254,-3.251953 3.41016,0.0059 0.006,-2.669922 -17.125,0 0,2.664062 3.35351,0 0.0469,9.384766 -3.38282,-0.0059 -0.004,2.535156 17.17773,0 0.002,-2.535156 -3.47851,0.02148 0.002,-2.896484 15.121098,0.01953 -0.004,2.855469 -3.31055,0 -0.006,2.535156 16.48243,0 0.004,-2.535156 -3.07031,0 0.01,-9.347657 2.86524,0.0078 0.002,-2.705078 -16.27148,0 z m -106.947266,0.002 -0.0039,2.654297 3.351562,0.0078 0.01953,9.382813 -3.382812,0 -0.0059,2.535156 16.917968,0.0078 -0.02539,-2.541015 -3.351563,0 0,-1.064453 7.898438,-3.328125 3.537105,4.392578 -3.199215,0 -0.002,2.548828 17.957035,0.02734 0.002,-2.576172 -2.2539,0.02148 -7.27539,-7.302734 5.07226,-2.097656 4.47266,0 0.004,-2.667969 -17.871093,0.0078 -0.0039,2.658203 2.623043,0 -10.957028,4.447266 0.0078,-4.435547 3.339844,0.002 0,-2.679687 -16.871094,0 z m 57.374998,2.644531 5.68164,0.0098 c 2.156,0.004 4.55808,1.142406 4.95508,3.816406 l -0.004,1.701172 c -0.244,2.352 -2.72771,3.725656 -4.88671,3.722656 l -5.67383,-0.0098 c -2.16,-0.005 -4.72489,-1.466375 -4.96289,-3.734375 l 0.004,-1.701171 c 0.244,-2.593001 2.72572,-3.807688 4.88672,-3.804688 z m 84.367188,0.126953 5.75976,0.0078 c 2.08001,0.003 4.55908,1.140406 4.95508,3.816406 l -0.002,1.703125 c -0.242,2.35 -2.80577,3.723703 -4.88477,3.720703 l -5.76367,-0.0078 c -2.082,-0.007 -4.63604,-1.467329 -4.87304,-3.736329 l 0.004,-1.705078 c 0.244,-2.589 2.72269,-3.801828 4.80469,-3.798828 z m 34.79492,0.978516 -0.002,1.207031 1.32226,0.002 -0.0117,4.257813 -1.31641,0 -0.002,1.171875 6.67578,-0.01758 -0.01,-1.154296 -1.32422,0 0,-0.482422 3.11719,-1.509766 1.39844,1.992188 -1.26172,0 -0.004,1.158203 7.08789,0.01367 0,-1.150391 -0.88867,-0.0078 -2.87109,-3.314454 2.00195,-0.953125 1.76563,0 0,-1.208984 -7.05274,0.002 0,1.207031 1.0332,0 -4.32226,2.019532 0.002,-2.015625 1.31836,0.002 0,-1.216797 -6.65625,-0.002 z"
     id="path7"
     inkscape:connector-curvature="0" /></svg>