<?xml version="1.0" encoding="UTF-8" standalone="no"?>
<!-- Creator: CorelDRAW X6 -->

<svg
   xmlns:dc="http://purl.org/dc/elements/1.1/"
   xmlns:cc="http://creativecommons.org/ns#"
   xmlns:rdf="http://www.w3.org/1999/02/22-rdf-syntax-ns#"
   xmlns:svg="http://www.w3.org/2000/svg"
   xmlns="http://www.w3.org/2000/svg"
   xmlns:sodipodi="http://sodipodi.sourceforge.net/DTD/sodipodi-0.dtd"
   xmlns:inkscape="http://www.inkscape.org/namespaces/inkscape"
   xml:space="preserve"
   width="4.9423571in"
   height="3.059in"
   version="1.1"
   style="clip-rule:evenodd;fill-rule:evenodd;image-rendering:optimizeQuality;shape-rendering:geometricPrecision;text-rendering:geometricPrecision"
   viewBox="0 0 4942.3571 3059"
   id="svg2"
   inkscape:version="0.91 r13725"
   sodipodi:docname="logo_russell_2.svg"><metadata
     id="metadata36"><rdf:RDF><cc:Work
         rdf:about=""><dc:format>image/svg+xml</dc:format><dc:type
           rdf:resource="http://purl.org/dc/dcmitype/StillImage" /><dc:title></dc:title></cc:Work></rdf:RDF></metadata><sodipodi:namedview
     pagecolor="#ffffff"
     bordercolor="#666666"
     borderopacity="1"
     objecttolerance="10"
     gridtolerance="10"
     guidetolerance="10"
     inkscape:pageopacity="0"
     inkscape:pageshadow="2"
     inkscape:window-width="983"
     inkscape:window-height="612"
     id="namedview34"
     showgrid="false"
     fit-margin-top="0"
     fit-margin-left="0"
     fit-margin-right="0"
     fit-margin-bottom="0"
     inkscape:zoom="0.23838384"
     inkscape:cx="-283.89204"
     inkscape:cy="80.460004"
     inkscape:window-x="0"
     inkscape:window-y="0"
     inkscape:window-maximized="0"
     inkscape:current-layer="svg2" /><defs
     id="defs4"><style
       type="text/css"
       id="style6"><![CDATA[
    .fil0 {fill:#1E1D1B}
    .fil1 {fill:#1E1D1B;fill-rule:nonzero}
   ]]></style></defs><g
     id="g3373"
     transform="translate(-1302,0)"><path
       inkscape:connector-curvature="0"
       style="fill:#000000;fill-opacity:1;stroke:none"
       id="path11"
       d="M 1302,3044 C 1679,2029 2056,1014 2433,0 c 1002,3 2004,6 3006,10 1189,-57 902,1252 164,1351 -321,43 -544,19 -1063,32 323,-592 246,-934 -577,-826 -306,838 -634,1641 -940,2479 -573,0 -1147,0 -1720,0 z"
       class="fil0" /><path
       inkscape:connector-curvature="0"
       style="fill:#000000;fill-opacity:1;stroke:none"
       id="path13"
       d="m 3747,1502 c 314,2 628,3 942,5 863,-13 1124,457 1044,875 -55,224 -110,448 -164,672 -464,2 -928,3 -1392,5 72,-259 145,-519 217,-778 61,-327 -144,-681 -648,-778 z"
       class="fil0" /><polygon
       transform="translate(-346,-3335)"
       style="fill:#000000;fill-opacity:1;fill-rule:nonzero;stroke:none"
       id="polygon15"
       points="6067,6221 6067,6201 6204,6201 6204,6221 6147,6221 6147,6373 6124,6373 6124,6221 "
       class="fil1" /><path
       inkscape:connector-curvature="0"
       style="fill:#000000;fill-opacity:1;fill-rule:nonzero;stroke:none"
       d="m 5881,3038 0,-173 34,0 41,122 c 4,11 7,20 8,26 2,-6 5,-16 9,-28 l 42,-120 31,0 0,173 -22,0 0,-145 -50,145 -21,0 -50,-147 0,147 -22,0 z"
       class="fil1"
       id="1" /></g></svg>