<?xml version="1.0" encoding="UTF-8" standalone="no"?>
<!-- Created with Inkscape (http://www.inkscape.org/) -->

<svg
   xmlns:dc="http://purl.org/dc/elements/1.1/"
   xmlns:cc="http://creativecommons.org/ns#"
   xmlns:rdf="http://www.w3.org/1999/02/22-rdf-syntax-ns#"
   xmlns:svg="http://www.w3.org/2000/svg"
   xmlns="http://www.w3.org/2000/svg"
   xmlns:sodipodi="http://sodipodi.sourceforge.net/DTD/sodipodi-0.dtd"
   xmlns:inkscape="http://www.inkscape.org/namespaces/inkscape"
   width="104.62758mm"
   height="40.336609mm"
   viewBox="0 0 370.72764 142.92499"
   id="svg2"
   version="1.1"
   inkscape:version="0.91 r13725"
   sodipodi:docname="pro_player.svg">
  <defs
     id="defs4" />
  <sodipodi:namedview
     id="base"
     pagecolor="#ffffff"
     bordercolor="#666666"
     borderopacity="1.0"
     inkscape:pageopacity="0.0"
     inkscape:pageshadow="2"
     inkscape:zoom="0.49497475"
     inkscape:cx="-217.44009"
     inkscape:cy="97.097554"
     inkscape:document-units="px"
     inkscape:current-layer="layer1"
     showgrid="false"
     showguides="false"
     fit-margin-top="0"
     fit-margin-left="0"
     fit-margin-right="0"
     fit-margin-bottom="0"
     inkscape:window-width="1600"
     inkscape:window-height="838"
     inkscape:window-x="-8"
     inkscape:window-y="-8"
     inkscape:window-maximized="1" />
  <metadata
     id="metadata7">
    <rdf:RDF>
      <cc:Work
         rdf:about="">
        <dc:format>image/svg+xml</dc:format>
        <dc:type
           rdf:resource="http://purl.org/dc/dcmitype/StillImage" />
        <dc:title></dc:title>
      </cc:Work>
    </rdf:RDF>
  </metadata>
  <g
     inkscape:label="Layer 1"
     inkscape:groupmode="layer"
     id="layer1"
     transform="translate(-195.46452,-388.36578)">
    <path
       style="fill:#00ff00;fill-opacity:1;fill-rule:evenodd;stroke:none;stroke-width:1px;stroke-linecap:butt;stroke-linejoin:miter;stroke-opacity:1"
       d="m 270.71429,531.29078 88.57142,-106.07143 c 0,0 36.0664,-0.50195 74.64286,-0.35714 38.57646,0.14481 65.71428,14.64285 65.71429,29.99999 1e-5,27.86631 -58.92857,37.14286 -73.92857,38.21429 -15,1.07143 -37.5,2.85714 -50.71429,1.07143 l 7.5,-10 c 0,0 22.81554,0.10665 27.5,0 9.48455,-0.5362 27.40148,2.6548 26.63778,-19.51659 0,0 0.29578,-15.71474 0.0433,-23.57143 -0.10358,-3.22348 0.47784,-8.06821 -8.10968,-7.98341 -11.43359,0.11291 -25.35714,0.35714 -25.35714,0.35714 l -79.28572,96.42857 z"
       id="path4147"
       inkscape:connector-curvature="0"
       sodipodi:nodetypes="cczsscccsssccc" />
    <path
       style="fill:#00ff00;fill-opacity:1;fill-rule:evenodd;stroke:none;stroke-width:1px;stroke-linecap:butt;stroke-linejoin:miter;stroke-opacity:1"
       d="m 195.46452,396.26813 c 48.9924,-7.57615 143.44166,-10.60661 207.08127,-5.05077 63.63961,5.55584 163.13964,27.27412 163.64471,64.64977 0.50508,37.37564 -114.14724,58.58884 -130.81475,61.11423 -16.66752,2.52538 -89.3985,11.61675 -89.90358,11.11167 -0.50508,-0.50507 3.53553,-7.07106 3.53553,-7.07106 0,0 20.20306,-0.50508 46.46702,-5.05077 26.26397,-4.54568 140.41121,-18.18274 139.40105,-58.08377 -1.01015,-39.90102 -121.01407,-56.80472 -147.48227,-59.09392 -59.45937,-5.14256 -106.82363,-7.57614 -191.92898,-2.52538 z"
       id="path4151"
       inkscape:connector-curvature="0"
       sodipodi:nodetypes="csssscsssc" />
  </g>
</svg>
