<?xml version="1.0" encoding="UTF-8" standalone="no"?>
<!-- Creator: CorelDRAW X6 -->

<svg
   xmlns:dc="http://purl.org/dc/elements/1.1/"
   xmlns:cc="http://creativecommons.org/ns#"
   xmlns:rdf="http://www.w3.org/1999/02/22-rdf-syntax-ns#"
   xmlns:svg="http://www.w3.org/2000/svg"
   xmlns="http://www.w3.org/2000/svg"
   xmlns:sodipodi="http://sodipodi.sourceforge.net/DTD/sodipodi-0.dtd"
   xmlns:inkscape="http://www.inkscape.org/namespaces/inkscape"
   xml:space="preserve"
   width="2.4926963in"
   height="2.555912in"
   version="1.1"
   style="clip-rule:evenodd;fill-rule:evenodd;image-rendering:optimizeQuality;shape-rendering:geometricPrecision;text-rendering:geometricPrecision"
   viewBox="0 0 2492.6963 2555.912"
   id="svg2"
   inkscape:version="0.91 r13725"
   sodipodi:docname="logo_asics2.svg"><metadata
     id="metadata27"><rdf:RDF><cc:Work
         rdf:about=""><dc:format>image/svg+xml</dc:format><dc:type
           rdf:resource="http://purl.org/dc/dcmitype/StillImage" /><dc:title></dc:title></cc:Work></rdf:RDF></metadata><sodipodi:namedview
     pagecolor="#ffffff"
     bordercolor="#666666"
     borderopacity="1"
     objecttolerance="10"
     gridtolerance="10"
     guidetolerance="10"
     inkscape:pageopacity="0"
     inkscape:pageshadow="2"
     inkscape:window-width="1276"
     inkscape:window-height="707"
     id="namedview25"
     showgrid="false"
     fit-margin-top="0"
     fit-margin-left="0"
     fit-margin-right="0"
     fit-margin-bottom="0"
     inkscape:zoom="0.23838384"
     inkscape:cx="-1000.9604"
     inkscape:cy="115.0552"
     inkscape:window-x="0"
     inkscape:window-y="0"
     inkscape:window-maximized="0"
     inkscape:current-layer="svg2" /><defs
     id="defs4"><style
       type="text/css"
       id="style6"><![CDATA[
    .fil0 {fill:#2D2925}
   ]]></style></defs><path
     class="fil0"
     d="m 798.30269,499.5213 21,36 c 34,-15 71,-47 106,-68 39,-24 73,-45 114.00001,-67 221,-120 567,-275 828,-221 242,49 270,240 200,439 -39,112 -119,254 -189,348 l -76,99 c 3,-51 45,-162 -61,-254 -68,-59 -165,-78 -277,-71 -178,12 -394,99 -527.00001,173 -120,67 -215,124 -321,206 -285,222 -603.000005,561 -616.00000486,961 -7.00000004,231 108.00000486,367 270.00000486,434 184,76 418,36 592,-29 285.00001,-108 438.00001,-239 644.00001,-404 l 183,-168 c 30,-31 57,-58 85,-90 l 61,-68 c 303,-336 981,-1271 476,-1663.999998 -142,-110 -390,-106 -584,-65 -188,40 -355,110.999998 -509,192.999998 -122,65 -264.00001,157 -372.00001,243 -16,13 -33,29 -49,38 z m 671.00001,406 c -321,33 -756.00001,382 -847.00001,648 -55,160 45,275 209,256 240.00001,-27 594.00001,-309 748.00001,-496 147,-179 183,-437 -110,-407 z"
     id="path11"
     style="fill:#000000;fill-opacity:1;stroke:none"
     inkscape:connector-curvature="0" /></svg>