<?xml version="1.0" encoding="UTF-8" standalone="no"?>
<!-- Generator: Adobe Illustrator 14.0.0, SVG Export Plug-In . SVG Version: 6.00 Build 43363)  -->

<svg
   xmlns:dc="http://purl.org/dc/elements/1.1/"
   xmlns:cc="http://creativecommons.org/ns#"
   xmlns:rdf="http://www.w3.org/1999/02/22-rdf-syntax-ns#"
   xmlns:svg="http://www.w3.org/2000/svg"
   xmlns="http://www.w3.org/2000/svg"
   xmlns:sodipodi="http://sodipodi.sourceforge.net/DTD/sodipodi-0.dtd"
   xmlns:inkscape="http://www.inkscape.org/namespaces/inkscape"
   version="1.1"
   id="Layer_1"
   x="0px"
   y="0px"
   width="236.55499"
   height="17.145"
   viewBox="0 0 236.55499 17.145"
   enable-background="new 0 0 250 108"
   xml:space="preserve"
   inkscape:version="0.91 r13725"
   sodipodi:docname="logo_easton.svg"><metadata
     id="metadata39"><rdf:RDF><cc:Work
         rdf:about=""><dc:format>image/svg+xml</dc:format><dc:type
           rdf:resource="http://purl.org/dc/dcmitype/StillImage" /><dc:title></dc:title></cc:Work></rdf:RDF></metadata><defs
     id="defs37" /><sodipodi:namedview
     pagecolor="#ffffff"
     bordercolor="#666666"
     borderopacity="1"
     objecttolerance="10"
     gridtolerance="10"
     guidetolerance="10"
     inkscape:pageopacity="0"
     inkscape:pageshadow="2"
     inkscape:window-width="903"
     inkscape:window-height="527"
     id="namedview35"
     showgrid="false"
     fit-margin-top="0"
     fit-margin-left="0"
     fit-margin-right="0"
     fit-margin-bottom="0"
     inkscape:zoom="1.152"
     inkscape:cx="199.24303"
     inkscape:cy="18.910711"
     inkscape:window-x="0"
     inkscape:window-y="0"
     inkscape:window-maximized="0"
     inkscape:current-layer="Layer_1" /><polygon
     points="19.165,89.725 41.71,89.725 43.389,85.896 12.379,85.896 5,102.716 36.011,102.716 37.676,98.923 15.13,98.923 16.438,95.938 37.486,95.938 38.948,92.604 17.901,92.604 "
     id="polygon17"
     transform="translate(-5,-85.716)" /><path
     d="m 60.593,3.388 2.694,6.349 -10.496,0 7.802,-6.349 z m 6.748,13.578 9.421,0 -7.949,-16.786 -12.306,0 -23.009,16.786 9.51,0 4.11,-3.053 18.909,0 1.314,3.053 z"
     id="path19"
     inkscape:connector-curvature="0" /><path
     d="m 78.898,12.609 c -1.679,3.828 1.544,4.254 6.79,4.425 1.829,0.11 3.734,0.11 5.606,0.11 3.619,0 7.229,-0.068 10.896,-0.179 6.545,-0.314 9.857,-1.048 11.679,-5.2 1.908,-4.349 -1.541,-5.125 -7.981,-5.125 -1.871,0 -3.703,0 -5.569,0 L 94.687,6.573 C 92.785,6.539 89.804,6.709 90.53,5.057 90.975,4.041 92.636,3.862 94.16,3.793 96.335,3.76 98.492,3.69 100.652,3.69 c 1.328,0 2.702,0 4.071,0 1.847,0.069 2.968,0.351 2.545,1.612 l 8.272,0 c 0.419,-1.049 0.983,-2.242 0.484,-3.195 -1.12,-1.997 -4.93,-2.038 -8.324,-2.074 L 101.817,0 c -3.213,0 -9.504,0.033 -12.657,0.494 -4.712,0.699 -6.204,2.387 -7.301,4.885 -1.383,3.155 -0.368,4.631 4.969,4.877 4.542,0.179 9.202,0.179 13.815,0.179 l 1.368,0 c 1.832,0 3.874,0.103 3.272,1.474 -0.633,1.441 -2.494,1.406 -4.396,1.475 -1.942,0.071 -3.835,0.104 -5.701,0.104 -1.329,0 -2.643,-0.033 -3.977,-0.033 -1.902,-0.036 -4.311,-0.036 -3.634,-1.579 l 0.068,-0.246 -8.317,0"
     id="path21"
     inkscape:connector-curvature="0" /><polygon
     points="144.607,89.971 157.104,89.971 158.937,85.786 125.358,85.786 123.522,89.971 136.067,89.971 130.536,102.579 139.074,102.579 "
     id="polygon23"
     transform="translate(-5,-85.716)" /><path
     d="m 161.123,8.364 c 0.295,-0.673 0.586,-1.339 0.989,-1.969 1.524,-2.318 4.414,-2.176 7.354,-2.252 2.887,-0.033 5.795,-0.033 8.655,-0.033 1.708,0 4.075,0.068 4.871,0.598 0.892,0.672 0.308,2.216 -0.14,3.231 -0.338,0.774 -0.703,1.507 -1.094,2.283 -1.384,2.669 -4.077,2.779 -8.093,2.779 -1.505,0 -2.952,0 -4.445,0 -1.55,0 -3.122,0 -4.651,-0.044 -5.138,-0.066 -4.957,-1.15 -3.738,-3.929 m -8.469,-0.699 c -0.447,1.017 -0.91,2.071 -1.263,3.087 -1.479,4.04 1.731,5.302 7.899,5.584 1.933,0.076 3.87,0.145 5.839,0.145 0.895,0 1.834,0 2.75,-0.033 l 6.574,-0.077 c 12.929,-0.241 14.53,-2.42 17.317,-8.78 l 0.354,-0.804 c 2.651,-6.042 -0.039,-7.416 -9.955,-7.416 l -6.922,-0.033 -6.182,0.069 C 157.271,0.18 155.261,1.722 152.362,8.329"
     id="path25"
     inkscape:connector-curvature="0" /><polygon
     points="202.536,85.861 216.301,85.861 227.134,98.469 227.891,98.469 233.422,85.861 241.555,85.861 234.176,102.682 220.413,102.682 209.594,90.038 208.822,90.073 203.291,102.682 195.159,102.682 "
     id="polygon27"
     transform="translate(-5,-85.716)" /></svg>