<?xml version="1.0" encoding="UTF-8" standalone="no"?>
<svg
   xmlns:dc="http://purl.org/dc/elements/1.1/"
   xmlns:cc="http://creativecommons.org/ns#"
   xmlns:rdf="http://www.w3.org/1999/02/22-rdf-syntax-ns#"
   xmlns:svg="http://www.w3.org/2000/svg"
   xmlns="http://www.w3.org/2000/svg"
   xmlns:sodipodi="http://sodipodi.sourceforge.net/DTD/sodipodi-0.dtd"
   xmlns:inkscape="http://www.inkscape.org/namespaces/inkscape"
   version="1.1"
   width="1085px"
   height="260px"
   viewBox="1 1 217 52"
   id="svg2"
   inkscape:version="0.91 r13725"
   sodipodi:docname="CCM_logo.svg">
  <metadata
     id="metadata15">
    <rdf:RDF>
      <cc:Work
         rdf:about="">
        <dc:format>image/svg+xml</dc:format>
        <dc:type
           rdf:resource="http://purl.org/dc/dcmitype/StillImage" />
        <dc:title></dc:title>
      </cc:Work>
    </rdf:RDF>
  </metadata>
  <sodipodi:namedview
     pagecolor="#ffffff"
     bordercolor="#666666"
     borderopacity="1"
     objecttolerance="10"
     gridtolerance="10"
     guidetolerance="10"
     inkscape:pageopacity="0"
     inkscape:pageshadow="2"
     inkscape:window-width="1145"
     inkscape:window-height="679"
     id="namedview13"
     showgrid="false"
     inkscape:zoom="0.31819805"
     inkscape:cx="753.42276"
     inkscape:cy="251.84736"
     inkscape:window-x="310"
     inkscape:window-y="86"
     inkscape:window-maximized="0"
     inkscape:current-layer="svg2" />
  <defs
     id="defs13" />
  <path
     style="fill:#000000;stroke:none;fill-opacity:1"
     d="M 0 0 L 0 260 L 1085 260 L 1085 0 L 0 0 z M 12.289062 9.8105469 L 174.75 9.8105469 L 352.19922 9.8105469 L 352.19922 250.18945 L 174.75 250.18945 L 174.75 250.18555 L 12.289062 250.18555 L 12.289062 9.8105469 z M 370.28906 9.8105469 L 532.75 9.8105469 L 710.19922 9.8105469 L 710.19922 250.18945 L 532.75 250.18945 L 532.75 250.18555 L 370.28906 250.18555 L 370.28906 9.8105469 z M 532.83203 40.042969 L 532.83594 85.664062 C 537.90594 84.459063 543.23641 83.792969 548.44141 83.792969 C 555.11141 83.792969 562.5818 84.858516 568.7168 86.728516 C 585.2568 91.928516 597.79586 106.47273 601.13086 123.67773 L 656.75586 123.54297 L 656.75586 50.978516 L 611.66602 50.978516 C 610.33102 54.583516 606.59766 57.119141 602.59766 57.119141 C 600.32766 57.119141 598.1918 56.182422 596.5918 54.982422 C 591.9218 51.782422 585.92156 49.383438 580.85156 47.648438 C 567.11156 42.70843 550.97125 40.042969 536.03125 40.042969 L 532.83203 40.042969 z M 532.83203 40.042969 C 513.22198 40.572969 493.47633 45.374067 475.73633 53.914062 C 454.39632 64.319063 437.45656 83.664219 429.85156 106.07422 C 426.11656 116.74422 417.44664 125.54742 407.30664 130.48242 C 417.44664 135.41742 425.4468 144.75734 429.7168 155.02734 C 439.0518 177.57234 456.39664 197.98281 478.80664 208.38281 C 495.47665 216.25281 514.15698 220.38765 532.83203 221.72266 C 532.83503 221.72366 532.83158 193.01257 532.83203 175.4375 C 531.36203 175.1725 529.76078 174.63828 528.42578 174.23828 C 518.02073 170.90328 509.08734 162.89883 504.15234 153.29883 C 501.34734 146.35883 499.75195 138.35867 499.75195 130.88867 C 499.75195 122.61867 501.62266 113.54898 505.22266 106.20898 C 510.42766 96.073994 520.29628 88.603594 531.23633 85.933594 C 531.76133 85.798594 532.29703 85.799062 532.83203 85.664062 C 532.83123 68.505328 532.83203 40.042969 532.83203 40.042969 z M 170.07031 40.179688 L 170.07422 85.800781 C 175.14422 84.595781 180.47469 83.929688 185.67969 83.929688 C 192.34969 83.929688 199.82008 84.995234 205.95508 86.865234 C 222.49508 92.065234 235.03414 106.60945 238.36914 123.81445 L 293.99414 123.67969 L 293.99414 51.115234 L 248.9043 51.115234 C 247.5693 54.720234 243.83594 57.255859 239.83594 57.255859 C 237.56594 57.255859 235.43008 56.319141 233.83008 55.119141 C 229.16008 51.919141 223.15984 49.520156 218.08984 47.785156 C 204.34984 42.845156 188.20953 40.179688 173.26953 40.179688 L 170.07031 40.179688 z M 170.07031 40.179688 C 150.46031 40.709686 130.71461 45.510781 112.97461 54.050781 C 91.634607 64.455781 74.694844 83.800934 67.089844 106.21094 C 63.354844 116.88094 54.684922 125.68414 44.544922 130.61914 C 54.684922 135.55414 62.685078 144.89406 66.955078 155.16406 C 76.290078 177.70906 93.634926 198.11953 116.04492 208.51953 C 132.71492 216.38953 151.39531 220.52436 170.07031 221.85938 C 170.07331 221.86038 170.06986 193.14929 170.07031 175.57422 C 168.60031 175.30922 166.99906 174.775 165.66406 174.375 C 155.25906 171.04 146.32563 163.03555 141.39062 153.43555 C 138.58562 146.49555 136.99023 138.49539 136.99023 131.02539 C 136.99023 122.75539 138.86094 113.6857 142.46094 106.3457 C 147.66594 96.210709 157.53461 88.740313 168.47461 86.070312 C 168.99961 85.935312 169.53531 85.935781 170.07031 85.800781 C 170.06953 68.642045 170.07031 40.179687 170.07031 40.179688 z M 762.75 51.115234 L 873.59961 51.115234 L 905.19922 124.61523 C 905.19945 124.61654 905.19899 124.61784 905.19922 124.61914 L 908.80078 132.75586 L 941.75 51.115234 L 1047.8008 51.115234 L 1047.8008 94.734375 L 1033.25 94.734375 L 1033.25 171.03906 L 1047.8008 171.03906 L 1047.8008 217.19531 L 952.15039 217.19531 L 952.15039 171.03906 L 966.69922 171.03906 L 966.69922 110.21094 L 921.34961 217.19531 L 905.19922 217.19531 L 905.19922 216.49219 C 897.68729 217.81552 886.5603 217.61062 870.65039 217.19531 L 828.90039 110.21094 L 828.90039 171.03906 L 839.94922 171.03906 L 839.94922 217.19531 L 762.75 217.19531 L 762.75 171.03906 L 783.55078 171.03906 L 783.55078 94.734375 L 762.75 94.734375 L 762.75 51.115234 z M 599.93164 141.55859 C 595.93164 151.42359 588.72688 161.16383 579.92188 167.29883 C 570.44688 173.70383 558.71242 177.17383 547.10742 177.17383 C 542.43867 177.17383 537.50874 176.50201 532.83984 175.4375 C 532.84084 193.01625 532.8392 221.72725 532.8418 221.72852 C 537.1068 221.99852 541.24172 222.12891 545.51172 222.12891 C 570.32172 222.12891 597.13195 216.9275 618.87695 205.1875 C 637.68195 195.0475 651.55719 175.30383 658.49219 155.29883 L 599.93164 141.55859 z M 237.16992 141.69531 C 233.16992 151.56031 225.96516 161.30055 217.16016 167.43555 C 207.68516 173.84055 195.9507 177.31055 184.3457 177.31055 C 179.67694 177.31055 174.74704 176.63873 170.07812 175.57422 C 170.07913 193.15297 170.07749 221.86396 170.08008 221.86523 C 174.34508 222.13523 178.48 222.26563 182.75 222.26562 C 207.56 222.26562 234.37023 217.06422 256.11523 205.32422 C 274.92023 195.18422 288.79547 175.44055 295.73047 155.43555 L 237.16992 141.69531 z "
     transform="matrix(0.2,0,0,0.2,1,1)"
     id="rect5" />
</svg>
