<?xml version="1.0" encoding="UTF-8" standalone="no"?>
<!-- Generator: Adobe Illustrator 12.0.0, SVG Export Plug-In . SVG Version: 6.00 Build 51448)  -->

<svg
   xmlns:dc="http://purl.org/dc/elements/1.1/"
   xmlns:cc="http://creativecommons.org/ns#"
   xmlns:rdf="http://www.w3.org/1999/02/22-rdf-syntax-ns#"
   xmlns:svg="http://www.w3.org/2000/svg"
   xmlns="http://www.w3.org/2000/svg"
   xmlns:sodipodi="http://sodipodi.sourceforge.net/DTD/sodipodi-0.dtd"
   xmlns:inkscape="http://www.inkscape.org/namespaces/inkscape"
   version="1.1"
   id="Layer_1"
   width="175.748"
   height="88.457001"
   viewBox="0 0 175.748 88.457002"
   overflow="visible"
   enable-background="new 0 0 192.756 192.756"
   xml:space="preserve"
   inkscape:version="0.91 r13725"
   sodipodi:docname="ssk.svg"
   style="overflow:visible"><metadata
     id="metadata19"><rdf:RDF><cc:Work
         rdf:about=""><dc:format>image/svg+xml</dc:format><dc:type
           rdf:resource="http://purl.org/dc/dcmitype/StillImage" /><dc:title></dc:title></cc:Work></rdf:RDF></metadata><defs
     id="defs17" /><sodipodi:namedview
     pagecolor="#ffffff"
     bordercolor="#666666"
     borderopacity="1"
     objecttolerance="10"
     gridtolerance="10"
     guidetolerance="10"
     inkscape:pageopacity="0"
     inkscape:pageshadow="2"
     inkscape:window-width="1291"
     inkscape:window-height="626"
     id="namedview15"
     showgrid="false"
     fit-margin-top="0"
     fit-margin-left="0"
     fit-margin-right="0"
     fit-margin-bottom="0"
     inkscape:zoom="1.2243458"
     inkscape:cx="-12.996195"
     inkscape:cy="41.767002"
     inkscape:window-x="0"
     inkscape:window-y="0"
     inkscape:window-maximized="0"
     inkscape:current-layer="Layer_1" /><g
     id="g3352"
     transform="translate(-8.504,-49.688)"><path
       d="m 95.98,93.941 c 11.626,0.406 22.143,10.088 22.143,22.079 0,12.219 -10.827,22.125 -24.183,22.125 l -85.436,-0.021 0,-0.385 c 13.111,0 23.74,-9.725 23.74,-21.719 0,-11.994 -10.629,-21.719 -23.74,-21.719 L 8.572,93.895 88.913,93.881 C 76.891,93.342 66.806,83.704 66.806,71.813 66.806,59.594 77.633,49.688 90.99,49.688 l 85.367,0 0.068,0.406 c -13.111,0 -23.74,9.724 -23.74,21.719 0,11.995 10.629,21.719 23.74,21.719 l 0,0.385 -80.445,0.024 0,0 z"
       id="path7"
       inkscape:connector-curvature="0"
       style="clip-rule:evenodd;fill-rule:evenodd" /><path
       d="m 145.643,119.68 -13.42,0 c -1.65,0 -3.373,0.717 -4.306,2.439 -0.934,1.723 -0.503,3.086 0.789,4.521 l 3.517,3.445 -6.53,0 -2.297,5.74 13.922,0 c 2.655,0.072 3.373,-1.65 3.804,-2.512 0.431,-0.862 0.502,-3.373 -0.646,-4.449 l -3.517,-3.445 6.387,0 2.297,-5.739 0,0 z"
       id="path9"
       inkscape:connector-curvature="0"
       style="clip-rule:evenodd;fill-rule:evenodd" /><path
       d="m 163.512,119.68 -13.42,0 c -1.65,0 -3.373,0.717 -4.306,2.439 -0.933,1.722 -0.503,3.086 0.789,4.521 l 3.517,3.445 -6.53,0 -2.297,5.74 13.923,0 c 2.655,0.072 3.373,-1.65 3.803,-2.512 0.431,-0.861 0.503,-3.373 -0.646,-4.449 l -3.517,-3.445 6.387,0 2.297,-5.739 0,0 z"
       id="path11"
       inkscape:connector-curvature="0"
       style="clip-rule:evenodd;fill-rule:evenodd" /><polygon
       points="179.946,135.826 175.783,128.865 184.252,119.68 176.07,119.68 169.898,126.426 172.626,119.68 165.449,119.68 165.449,119.68 159.063,135.826 166.239,135.826 168.895,129.152 172.841,135.826 "
       id="polygon13"
       style="clip-rule:evenodd;fill-rule:evenodd" /></g></svg>