<?xml version="1.0" encoding="UTF-8" standalone="no"?>
<!-- Creator: CorelDRAW X6 -->

<svg
   xmlns:dc="http://purl.org/dc/elements/1.1/"
   xmlns:cc="http://creativecommons.org/ns#"
   xmlns:rdf="http://www.w3.org/1999/02/22-rdf-syntax-ns#"
   xmlns:svg="http://www.w3.org/2000/svg"
   xmlns="http://www.w3.org/2000/svg"
   xmlns:sodipodi="http://sodipodi.sourceforge.net/DTD/sodipodi-0.dtd"
   xmlns:inkscape="http://www.inkscape.org/namespaces/inkscape"
   xml:space="preserve"
   width="7.8653035in"
   height="2.5559125in"
   version="1.1"
   style="clip-rule:evenodd;fill-rule:evenodd;image-rendering:optimizeQuality;shape-rendering:geometricPrecision;text-rendering:geometricPrecision"
   viewBox="0 0 7865.3035 2555.9125"
   id="svg2"
   inkscape:version="0.91 r13725"
   sodipodi:docname="logo_asics.svg"><metadata
     id="metadata27"><rdf:RDF><cc:Work
         rdf:about=""><dc:format>image/svg+xml</dc:format><dc:type
           rdf:resource="http://purl.org/dc/dcmitype/StillImage" /><dc:title></dc:title></cc:Work></rdf:RDF></metadata><sodipodi:namedview
     pagecolor="#ffffff"
     bordercolor="#666666"
     borderopacity="1"
     objecttolerance="10"
     gridtolerance="10"
     guidetolerance="10"
     inkscape:pageopacity="0"
     inkscape:pageshadow="2"
     inkscape:window-width="1276"
     inkscape:window-height="707"
     id="namedview25"
     showgrid="false"
     fit-margin-top="0"
     fit-margin-left="0"
     fit-margin-right="0"
     fit-margin-bottom="0"
     inkscape:zoom="0.23838384"
     inkscape:cx="-482.88832"
     inkscape:cy="115.05522"
     inkscape:window-x="0"
     inkscape:window-y="0"
     inkscape:window-maximized="0"
     inkscape:current-layer="svg2" /><defs
     id="defs4"><style
       type="text/css"
       id="style6"><![CDATA[
    .fil0 {fill:#2D2925}
   ]]></style></defs><g
     id="Layer_x0020_1"
     style="fill:#000000;fill-opacity:1;stroke:none"
     transform="translate(-316.69657,-4222.4785)"><metadata
       id="CorelCorpID_0Corel-Layer" /><g
       id="_1127760560"
       style="fill:#000000;fill-opacity:1;stroke:none"><path
         class="fil0"
         d="m 1115,4722 21,36 c 34,-15 71,-47 106,-68 39,-24 73,-45 114,-67 221,-120 567,-275 828,-221 242,49 270,240 200,439 -39,112 -119,254 -189,348 l -76,99 c 3,-51 45,-162 -61,-254 -68,-59 -165,-78 -277,-71 -178,12 -394,99 -527,173 -120,67 -215,124 -321,206 -285,222 -603,561 -616,961 -7,231 108,367 270,434 184,76 418,36 592,-29 285,-108 438,-239 644,-404 l 183,-168 c 30,-31 57,-58 85,-90 l 61,-68 c 303,-336 981,-1271 476,-1664 -142,-110 -390,-106 -584,-65 -188,40 -355,111 -509,193 -122,65 -264,157 -372,243 -16,13 -33,29 -49,38 z m 671,406 c -321,33 -756,382 -847,648 -55,160 45,275 209,256 240,-27 594,-309 748,-496 147,-179 183,-437 -110,-407 z"
         id="path11"
         style="fill:#000000;fill-opacity:1;stroke:none"
         inkscape:connector-curvature="0" /><path
         class="fil0"
         d="m 3288,5125 c 143,2 287,0 430,0 67,0 133,5 154,57 19,45 -7,139 -24,182 -239,16 -394,-44 -656,103 -144,81 -302,222 -330,435 -28,217 100,388 323,432 108,22 252,13 367,13 121,0 262,7 380,-1 52,-173 94,-355 142,-529 48,-175 99,-353 142,-530 55,-225 -46,-379 -202,-444 -101,-42 -192,-31 -307,-31 -112,0 -225,0 -337,0 l -82,312 z m 383,909 95,-359 c -87,1 -252,-10 -325,6 -215,47 -281,314 -97,350 61,12 253,4 327,3 z"
         id="path13"
         style="fill:#000000;fill-opacity:1;stroke:none"
         inkscape:connector-curvature="0" /><path
         class="fil0"
         d="m 4187,6035 c -10,16 -83,291 -83,313 141,-2 283,0 424,0 254,0 451,-26 585,-271 47,-86 92,-235 64,-350 -77,-320 -619,-355 -512,-532 29,-48 75,-69 147,-69 143,-1 287,1 430,0 11,-54 83,-283 79,-313 -141,2 -285,0 -427,0 -236,0 -445,97 -542,313 -47,105 -67,238 -9,343 51,93 129,150 223,206 88,52 208,104 257,171 35,47 6,121 -26,149 -41,36 -113,39 -178,39 -83,0 -375,-4 -434,1 z"
         id="path15"
         style="fill:#000000;fill-opacity:1;stroke:none"
         inkscape:connector-curvature="0" /><path
         class="fil0"
         d="m 5167,6348 338,0 c 15,-35 82,-314 100,-379 35,-128 67,-255 100,-385 23,-89 200,-742 196,-771 l -332,0 -402,1535 z"
         id="path17"
         style="fill:#000000;fill-opacity:1;stroke:none"
         inkscape:connector-curvature="0" /><path
         class="fil0"
         d="m 8182,6192 c 0,41 -14,75 -43,104 -29,29 -63,43 -104,43 -41,0 -75,-14 -104,-43 -29,-29 -43,-63 -43,-104 0,-41 14,-75 43,-104 29,-29 63,-43 104,-43 41,0 75,14 104,43 29,29 43,63 43,104 z m -17,0 c 0,-36 -13,-67 -38,-92 -25,-26 -56,-38 -92,-38 -36,0 -67,13 -92,38 -25,26 -38,56 -38,92 0,36 13,67 38,92 25,26 56,38 92,38 36,0 67,-13 92,-38 25,-26 38,-56 38,-92 z m -185,-84 61,0 c 22,0 38,4 48,12 10,8 14,18 14,30 0,13 -5,24 -15,32 -7,6 -18,10 -32,12 6,3 11,6 13,8 3,2 7,7 12,15 6,8 10,14 13,19 l 16,29 -25,0 -15,-26 c -12,-20 -21,-33 -27,-37 -6,-4 -16,-6 -30,-6 l -13,0 0,69 -20,0 0,-158 z m 20,17 0,55 20,0 c 22,0 37,-1 44,-3 5,-1 10,-5 13,-9 3,-5 5,-10 5,-15 0,-8 -3,-14 -9,-20 -6,-5 -20,-8 -44,-8 l -30,0 z"
         id="path19"
         style="fill:#000000;fill-opacity:1;stroke:none"
         inkscape:connector-curvature="0" /><path
         class="fil0"
         d="m 6862,6034 c -17,11 -21,51 -27,72 -13,48 -61,215 -62,243 141,-2 283,0 424,0 247,0 457,-28 584,-272 122,-234 103,-441 -125,-589 -137,-90 -394,-173 -323,-292 28,-48 75,-69 147,-69 143,-1 287,0 430,0 l 83,-313 c -142,0 -284,0 -425,0 -144,0 -242,23 -345,86 -192,115 -311,386 -211,571 112,205 392,256 480,377 35,47 7,120 -26,148 -40,36 -112,39 -178,39 -143,0 -286,1 -429,0 z"
         id="path21"
         style="fill:#000000;fill-opacity:1;stroke:none"
         inkscape:connector-curvature="0" /><path
         class="fil0"
         d="m 6624,6348 85,-314 c -177,-1 -386,27 -497,-78 -114,-107 -125,-272 -57,-439 55,-137 159,-243 271,-307 168,-95 282,-84 495,-85 l 83,-312 c -314,-2 -524,1 -759,148 -172,108 -321,274 -408,501 -43,112 -77,246 -67,381 18,258 176,439 419,489 127,27 300,15 436,16 z"
         id="path23"
         style="fill:#000000;fill-opacity:1;stroke:none"
         inkscape:connector-curvature="0" /></g></g></svg>