<?xml version="1.0" encoding="UTF-8" standalone="no"?>
<!-- Created with Inkscape (http://www.inkscape.org/) -->

<svg
   xmlns:dc="http://purl.org/dc/elements/1.1/"
   xmlns:cc="http://creativecommons.org/ns#"
   xmlns:rdf="http://www.w3.org/1999/02/22-rdf-syntax-ns#"
   xmlns:svg="http://www.w3.org/2000/svg"
   xmlns="http://www.w3.org/2000/svg"
   xmlns:sodipodi="http://sodipodi.sourceforge.net/DTD/sodipodi-0.dtd"
   xmlns:inkscape="http://www.inkscape.org/namespaces/inkscape"
   width="56.444443mm"
   height="26.967201mm"
   viewBox="0 0 199.99999 95.553075"
   id="svg4196"
   version="1.1"
   inkscape:version="0.91 r13725"
   sodipodi:docname="rawlings_2.svg">
  <defs
     id="defs4198" />
  <sodipodi:namedview
     id="base"
     pagecolor="#ffffff"
     bordercolor="#666666"
     borderopacity="1.0"
     inkscape:pageopacity="0.0"
     inkscape:pageshadow="2"
     inkscape:zoom="0.35"
     inkscape:cx="-384.12137"
     inkscape:cy="-35.183744"
     inkscape:document-units="px"
     inkscape:current-layer="layer1"
     showgrid="false"
     fit-margin-top="0"
     fit-margin-left="0"
     fit-margin-right="0"
     fit-margin-bottom="0"
     inkscape:window-width="1600"
     inkscape:window-height="838"
     inkscape:window-x="-8"
     inkscape:window-y="-8"
     inkscape:window-maximized="1" />
  <metadata
     id="metadata4201">
    <rdf:RDF>
      <cc:Work
         rdf:about="">
        <dc:format>image/svg+xml</dc:format>
        <dc:type
           rdf:resource="http://purl.org/dc/dcmitype/StillImage" />
        <dc:title></dc:title>
      </cc:Work>
    </rdf:RDF>
  </metadata>
  <g
     inkscape:label="Layer 1"
     inkscape:groupmode="layer"
     id="layer1"
     transform="translate(-271.97851,-401.62538)">
    <g
       id="g4752"
       transform="matrix(3.5686904,0,0,3.5686904,25.305733,-369.6306)">
      <path
         id="path13-4"
         d="m 98.179967,216.11737 c -15.983,0 -29.058594,6.22625 -29.058594,13.90625 0,4.568 4.359016,8.51196 11.416016,11.00196 0,0 0.208016,3e-5 0.416016,0.20703 3.943,0.83 9.963296,1.66015 14.529297,1.66015 14.737998,0 29.681638,-6.01921 29.681638,-13.69921 0,-7.887 -11.62322,-11.20705 -13.69922,-11.62305 -4.151,-0.83 -8.51115,-1.45313 -13.285153,-1.45313 z m -0.207031,1.03907 c 14.114004,0 24.908204,4.98007 24.908204,11.83007 0,6.643 -12.66138,12.66211 -26.984376,12.66211 -14.114,0 -24.490234,-4.982 -24.490234,-11.625 0,-6.848 12.244406,-12.86718 26.566406,-12.86718 z"
         style="clip-rule:evenodd;fill:#000000;fill-opacity:1;fill-rule:evenodd"
         inkscape:connector-curvature="0" />
      <path
         style="clip-rule:evenodd;fill:#000000;fill-opacity:1;fill-rule:evenodd"
         d="m 97.766577,227.32581 c 0.415,-2.076 2.699003,-3.736 4.152003,-4.15 0.207,0 0,-0.209 -0.207,-0.209 -2.285003,0.209 -4.775003,1.039 -7.473003,3.113 -2.699,2.076 -5.397,7.889 -6.02,8.926 -1.038,1.453 -3.114,2.283 -4.774,1.66 -1.661,-0.623 -1.453,-2.283 -1.038,-3.736 0.623,-1.453 3.736,-5.811 7.68,-8.303 2.283,-1.451 6.642,-3.734 11.416003,-3.734 3.529,-0.209 5.812,0.621 5.812,2.283 0.207,2.49 -4.152,4.15 -7.473003,4.15 -0.622,0 -1.453,-0.207 -2.075,0 l 0,0 z m -1.661,2.076 c 0.623,-0.209 1.453,-0.209 2.076,0 1.038,0.414 1.661,1.453 2.077003,2.49 0.414,1.037 1.244,2.49 2.904,3.113 1.662,0.83 7.68,1.867 9.963,1.453 0.832,-0.207 1.039,-0.623 1.039,-1.037 0,-0.416 -0.416,-0.623 -0.83,-0.623 -1.66,-0.207 -3.736,-0.83 -5.396,-1.246 -1.039,-0.207 -2.699,-0.83 -3.529,-2.49 -0.416,-0.623 -1.246,-1.66 -2.076,-1.869 -0.83,-0.207 -1.66,-0.414 -2.074,-0.621 1.867,0 3.113,-0.209 4.15,-0.416 1.66,-0.207 4.566,-0.623 6.643,-2.283 2.074,-1.66 1.66,-3.943 -0.83,-4.98 -1.869,-0.832 -4.359,-1.453 -7.473,-1.453 -3.322003,0 -8.095003,0.621 -11.001003,1.66 -3.113,1.037 -7.68,3.113 -10.585,6.02 -3.114,2.697 -3.736,5.811 -3.321,7.887 0.416,1.867 2.698,3.32 6.642,3.32 3.529,-0.207 5.812,-1.453 8.303,-3.943 1.035,-1.039 2.488,-3.115 3.318,-4.982 l 0,0 z"
         id="path17-4"
         inkscape:connector-curvature="0" />
    </g>
  </g>
</svg>
