<?xml version="1.0" encoding="UTF-8" standalone="no"?>
<!-- Creator: CorelDRAW X6 -->

<svg
   xmlns:dc="http://purl.org/dc/elements/1.1/"
   xmlns:cc="http://creativecommons.org/ns#"
   xmlns:rdf="http://www.w3.org/1999/02/22-rdf-syntax-ns#"
   xmlns:svg="http://www.w3.org/2000/svg"
   xmlns="http://www.w3.org/2000/svg"
   xmlns:sodipodi="http://sodipodi.sourceforge.net/DTD/sodipodi-0.dtd"
   xmlns:inkscape="http://www.inkscape.org/namespaces/inkscape"
   xml:space="preserve"
   width="7.8090005in"
   height="4.3298893in"
   version="1.1"
   style="clip-rule:evenodd;fill-rule:evenodd;image-rendering:optimizeQuality;shape-rendering:geometricPrecision;text-rendering:geometricPrecision"
   viewBox="0 0 7809.0005 4329.8893"
   id="svg2"
   inkscape:version="0.91 r13725"
   sodipodi:docname="logo_russell.svg"><metadata
     id="metadata36"><rdf:RDF><cc:Work
         rdf:about=""><dc:format>image/svg+xml</dc:format><dc:type
           rdf:resource="http://purl.org/dc/dcmitype/StillImage" /><dc:title></dc:title></cc:Work></rdf:RDF></metadata><sodipodi:namedview
     pagecolor="#ffffff"
     bordercolor="#666666"
     borderopacity="1"
     objecttolerance="10"
     gridtolerance="10"
     guidetolerance="10"
     inkscape:pageopacity="0"
     inkscape:pageshadow="2"
     inkscape:window-width="983"
     inkscape:window-height="612"
     id="namedview34"
     showgrid="false"
     fit-margin-top="0"
     fit-margin-left="0"
     fit-margin-right="0"
     fit-margin-bottom="0"
     inkscape:zoom="0.23838384"
     inkscape:cx="351.36"
     inkscape:cy="194.84003"
     inkscape:window-x="0"
     inkscape:window-y="0"
     inkscape:window-maximized="0"
     inkscape:current-layer="svg2" /><defs
     id="defs4"><style
       type="text/css"
       id="style6"><![CDATA[
    .fil0 {fill:#1E1D1B}
    .fil1 {fill:#1E1D1B;fill-rule:nonzero}
   ]]></style></defs><g
     id="Layer_x0020_1"
     style="fill:#000000;fill-opacity:1;stroke:none"
     transform="translate(-346,-3335)"><metadata
       id="CorelCorpID_0Corel-Layer" /><g
       id="Russell_x0020_Logo.cdr"
       style="fill:#000000;fill-opacity:1;stroke:none"><path
         class="fil0"
         d="m 1648,6379 c 377,-1015 754,-2030 1131,-3044 1002,3 2004,6 3006,10 1189,-57 902,1252 164,1351 -321,43 -544,19 -1063,32 323,-592 246,-934 -577,-826 -306,838 -634,1641 -940,2479 -573,0 -1147,0 -1720,0 z"
         id="path11"
         style="fill:#000000;fill-opacity:1;stroke:none"
         inkscape:connector-curvature="0" /><path
         class="fil0"
         d="m 4093,4837 c 314,2 628,3 942,5 863,-13 1124,457 1044,875 -55,224 -110,448 -164,672 -464,2 -928,3 -1392,5 72,-259 145,-519 217,-778 61,-327 -144,-681 -648,-778 z"
         id="path13"
         style="fill:#000000;fill-opacity:1;stroke:none"
         inkscape:connector-curvature="0" /><polygon
         class="fil1"
         points="6067,6201 6204,6201 6204,6221 6147,6221 6147,6373 6124,6373 6124,6221 6067,6221 "
         id="polygon15"
         style="fill:#000000;fill-opacity:1;fill-rule:nonzero;stroke:none" /><path
         id="1"
         class="fil1"
         d="m 6227,6373 0,-173 34,0 41,122 c 4,11 7,20 8,26 2,-6 5,-16 9,-28 l 42,-120 31,0 0,173 -22,0 0,-145 -50,145 -21,0 -50,-147 0,147 -22,0 z"
         style="fill:#000000;fill-opacity:1;fill-rule:nonzero;stroke:none"
         inkscape:connector-curvature="0" /><path
         class="fil0"
         d="m 346,7634 c 120,-324 241,-648 361,-972 320,1 640,2 959,3 380,-18 288,400 52,431 -102,14 -174,6 -339,10 103,-189 78,-298 -184,-264 -98,267 -202,524 -300,791 -183,0 -366,0 -549,0 z"
         id="path18"
         style="fill:#000000;fill-opacity:1;stroke:none"
         inkscape:connector-curvature="0" /><path
         class="fil0"
         d="m 1126,7142 c 100,1 201,1 301,2 275,-4 359,146 333,279 -17,71 -35,143 -52,214 -148,1 -296,1 -444,2 23,-83 46,-166 69,-248 19,-104 -46,-217 -207,-248 z"
         id="path20"
         style="fill:#000000;fill-opacity:1;stroke:none"
         inkscape:connector-curvature="0" /><path
         class="fil0"
         d="m 2159,6662 c 126,0 251,0 377,0 -64,196 -129,392 -193,589 -47,179 230,217 307,0 40,-124 81,-247 121,-371 55,-161 209,-234 445,-218 -70,209 -140,418 -210,627 -95,269 -325,369 -575,375 -51,0 -101,2 -152,0 -232,-29 -367,-163 -331,-339 71,-221 142,-443 213,-664 z"
         id="path22"
         style="fill:#000000;fill-opacity:1;stroke:none"
         inkscape:connector-curvature="0" /><path
         class="fil0"
         d="m 4238,6662 c -27,85 -53,170 -80,254 -179,0 -360,0 -539,0 -68,10 -81,117 -14,128 99,0 198,0 297,0 118,16 182,71 191,165 -22,303 -198,420 -338,436 -224,-1 -448,-2 -672,-2 18,-51 35,-102 53,-153 26,-65 87,-97 184,-97 132,1 264,2 396,2 63,2 98,-110 14,-128 -97,1 -193,2 -290,2 -340,-20 -192,-585 188,-608 203,0 406,0 609,0 z"
         id="path24"
         style="fill:#000000;fill-opacity:1;stroke:none"
         inkscape:connector-curvature="0" /><path
         class="fil0"
         d="m 5296,6662 c -27,85 -53,170 -80,254 -179,0 -360,0 -539,0 -68,10 -81,117 -14,128 99,0 198,0 297,0 118,16 182,71 191,165 -22,303 -198,420 -338,436 -224,-1 -448,-2 -672,-2 18,-51 35,-102 53,-153 26,-65 87,-97 184,-97 132,1 264,2 396,2 63,2 98,-110 14,-128 -97,1 -193,2 -290,2 -340,-20 -192,-585 188,-608 203,0 406,0 609,0 z"
         id="path26"
         style="fill:#000000;fill-opacity:1;stroke:none"
         inkscape:connector-curvature="0" /><polygon
         class="fil0"
         points="5760,6921 5719,7057 6204,7057 6144,7236 5658,7236 5612,7381 6192,7381 6108,7643 5192,7643 5516,6662 6407,6662 6313,6921 "
         id="polygon28"
         style="fill:#000000;fill-opacity:1;stroke:none" /><path
         class="fil0"
         d="m 6620,6671 c 127,0 255,0 382,0 -72,216 -143,431 -215,647 -19,73 5,115 70,124 119,0 238,0 358,0 -26,69 -52,137 -77,206 -171,0 -342,0 -512,0 -184,-5 -262,-110 -239,-274 78,-234 156,-468 234,-703 z"
         id="path30"
         style="fill:#000000;fill-opacity:1;stroke:none"
         inkscape:connector-curvature="0" /><path
         class="fil0"
         d="m 7560,6671 c 127,0 255,0 382,0 -72,216 -143,431 -215,647 -19,73 5,115 70,124 119,0 238,0 358,0 -26,69 -52,137 -77,206 -171,0 -342,0 -512,0 -184,-5 -262,-110 -239,-274 78,-234 156,-468 234,-703 z"
         id="path32"
         style="fill:#000000;fill-opacity:1;stroke:none"
         inkscape:connector-curvature="0" /></g></g></svg>