<?xml version="1.0" encoding="UTF-8" standalone="no"?>
<!-- Generator: Adobe Illustrator 14.0.0, SVG Export Plug-In . SVG Version: 6.00 Build 43363)  -->

<svg
   xmlns:dc="http://purl.org/dc/elements/1.1/"
   xmlns:cc="http://creativecommons.org/ns#"
   xmlns:rdf="http://www.w3.org/1999/02/22-rdf-syntax-ns#"
   xmlns:svg="http://www.w3.org/2000/svg"
   xmlns="http://www.w3.org/2000/svg"
   xmlns:sodipodi="http://sodipodi.sourceforge.net/DTD/sodipodi-0.dtd"
   xmlns:inkscape="http://www.inkscape.org/namespaces/inkscape"
   version="1.1"
   id="Layer_1"
   x="0px"
   y="0px"
   width="240"
   height="56.546875"
   viewBox="0 0 240 56.546875"
   enable-background="new 0 0 250 66"
   xml:space="preserve"
   inkscape:version="0.91 r13725"
   sodipodi:docname="CCM_hockey.svg"><metadata
     id="metadata21"><rdf:RDF><cc:Work
         rdf:about=""><dc:format>image/svg+xml</dc:format><dc:type
           rdf:resource="http://purl.org/dc/dcmitype/StillImage" /><dc:title></dc:title></cc:Work></rdf:RDF></metadata><defs
     id="defs19" /><sodipodi:namedview
     pagecolor="#ffffff"
     bordercolor="#666666"
     borderopacity="1"
     objecttolerance="10"
     gridtolerance="10"
     guidetolerance="10"
     inkscape:pageopacity="0"
     inkscape:pageshadow="2"
     inkscape:window-width="1115"
     inkscape:window-height="657"
     id="namedview17"
     showgrid="false"
     fit-margin-top="0"
     fit-margin-left="0"
     fit-margin-right="0"
     fit-margin-bottom="0"
     inkscape:zoom="4.608"
     inkscape:cx="198.83898"
     inkscape:cy="32.827609"
     inkscape:window-x="0"
     inkscape:window-y="0"
     inkscape:window-maximized="0"
     inkscape:current-layer="Layer_1" /><path
     d="m 227.38477,0 -107.54883,2.7792969 -10.89844,2.9902346 112.89258,0 9.18945,8.3398435 -17.4668,27.816406 L 240,12.828125 227.38477,0 Z M 26.126953,14.855469 0,43.720703 12.613281,56.546875 120.16016,53.769531 l 10.90625,-2.990235 -112.894535,0 -9.189453,-8.33789 17.144531,-27.585937 z m 177.123047,0.0918 -19.41797,11.261718 -5.92187,-11.251953 -21.97657,0 7.99805,4.109375 -10.70703,17.076172 -11.83203,5.544921 21.84961,0 8.71484,-13.908203 4.99219,10.228516 17.66992,-10.009766 -8.51758,13.689453 13.73047,-0.01172 14.4082,-23.021485 -4.13671,-3.707031 -6.85352,0 z m -173.169922,0.0098 7.648438,4.091797 -10.931641,17.425781 5.732422,5.21289 32.105469,0 c 0.859,0 4.306859,-0.50925 6.380859,-1.53125 1.933,-0.962 3.301328,-2.077703 4.111328,-3.345703 l 2.738281,-4.251953 -14.880859,0 -2.285156,3.660156 -16.697266,0 9.898438,-15.798828 16.615234,0 -1.736328,2.826172 14.900391,0 5.107421,-8.267578 -58.707031,-0.02148 z m 62.583984,0 7.648438,4.091797 -10.935547,17.425781 5.738277,5.21289 32.10352,0 c 0.865,0 4.30177,-0.50925 6.38477,-1.53125 1.931,-0.962 3.29942,-2.077703 4.10742,-3.345703 l 2.73828,-4.251953 -14.88086,0 -2.2832,3.660156 -16.70313,0 9.90625,-15.798828 16.61133,0 -1.74219,2.826172 14.9043,0 5.11133,-8.267578 -58.708988,-0.02148 z"
     id="path5"
     inkscape:connector-curvature="0" /></svg>