<?xml version="1.0" encoding="UTF-8" standalone="no"?>
<!-- Created with Inkscape (http://www.inkscape.org/) -->

<svg
   xmlns:dc="http://purl.org/dc/elements/1.1/"
   xmlns:cc="http://creativecommons.org/ns#"
   xmlns:rdf="http://www.w3.org/1999/02/22-rdf-syntax-ns#"
   xmlns:svg="http://www.w3.org/2000/svg"
   xmlns="http://www.w3.org/2000/svg"
   xmlns:sodipodi="http://sodipodi.sourceforge.net/DTD/sodipodi-0.dtd"
   xmlns:inkscape="http://www.inkscape.org/namespaces/inkscape"
   width="68.461731mm"
   height="48.80843mm"
   viewBox="0 0 242.58094 172.94325"
   id="svg4169"
   version="1.1"
   inkscape:version="0.91 r13725"
   sodipodi:docname="logo_spalding_2.svg">
  <defs
     id="defs4171" />
  <sodipodi:namedview
     id="base"
     pagecolor="#ffffff"
     bordercolor="#666666"
     borderopacity="1.0"
     inkscape:pageopacity="0.0"
     inkscape:pageshadow="2"
     inkscape:zoom="0.35"
     inkscape:cx="-345.13813"
     inkscape:cy="52.185898"
     inkscape:document-units="px"
     inkscape:current-layer="layer1"
     showgrid="false"
     fit-margin-top="0"
     fit-margin-left="0"
     fit-margin-right="0"
     fit-margin-bottom="0"
     inkscape:window-width="1600"
     inkscape:window-height="838"
     inkscape:window-x="-8"
     inkscape:window-y="-8"
     inkscape:window-maximized="1" />
  <metadata
     id="metadata4174">
    <rdf:RDF>
      <cc:Work
         rdf:about="">
        <dc:format>image/svg+xml</dc:format>
        <dc:type
           rdf:resource="http://purl.org/dc/dcmitype/StillImage" />
        <dc:title></dc:title>
      </cc:Work>
    </rdf:RDF>
  </metadata>
  <g
     inkscape:label="Layer 1"
     inkscape:groupmode="layer"
     id="layer1"
     transform="translate(-232.99527,-411.60484)">
    <path
       inkscape:connector-curvature="0"
       d="m 385.50886,467.16662 4.91389,-26.06193 c -29.00527,5.0594 -41.24427,4.40671 -49.91633,13.0663 -7.05073,7.05905 -7.85724,17.65177 -5.04693,25.6462 2.83942,8.13162 14.97449,45.03571 15.4692,46.51154 1.01437,4.4067 0.56539,8.02768 -3.43806,11.40754 -2.88515,2.42785 -8.05263,2.89762 -11.01677,1.4301 -4.59793,-2.26986 -5.70376,-7.76578 -4.93467,-11.67777 l -10.09801,1.48415 -5.02614,25.63372 c 29.01774,-5.03861 41.24427,-4.4067 49.89555,-13.04135 7.08399,-7.09646 7.88634,-17.67671 5.05524,-25.67114 -2.82695,-8.11915 -13.02473,-40.34631 -14.41741,-45.24773 -1.40516,-4.87647 -2.41953,-8.63465 2.41537,-12.67135 2.87683,-2.39459 8.02769,-2.88515 11.01676,-1.41763 4.58132,2.25324 5.78692,8.25633 5.00951,12.16832 l 10.1188,-1.55897"
       id="path2516" />
    <path
       inkscape:connector-curvature="0"
       d="m 257.68528,471.24074 0,0.26191 0.27438,0.10393 c 107.46543,-67.78844 187.05635,-43.87998 188.39499,-2.61076 0.96865,30.58919 -18.03007,57.16662 -62.96184,79.62834 l -0.10809,0.30764 0.26191,0.14966 c 63.64779,-21.51802 92.09183,-51.44205 92.02947,-84.7501 -0.0748,-69.41393 -136.83237,-73.47974 -217.89082,6.90938"
       id="path2518" />
    <path
       inkscape:connector-curvature="0"
       d="m 451.20619,524.3956 -0.33258,-0.0873 c -107.58598,68.64898 -187.29748,44.56592 -188.65691,3.30087 -0.98943,-30.59335 18.45828,-57.28718 63.42748,-79.7697 l -0.0831,0.0457 0.14966,-0.32011 -0.27438,-0.14966 c -63.61039,21.53466 -92.47431,51.55431 -92.44106,84.86235 0.0915,69.41393 138.10867,72.47368 218.21094,-7.60365 l 0,-0.27853"
       id="path2520" />
  </g>
</svg>
